<?xml version="1.0" standalone="no"?>
<!DOCTYPE svg PUBLIC "-//W3C//DTD SVG 20010904//EN"
 "http://www.w3.org/TR/2001/REC-SVG-20010904/DTD/svg10.dtd">
<svg version="1.0" xmlns="http://www.w3.org/2000/svg"
 width="700.000000pt" height="700.000000pt" viewBox="0 0 700.000000 700.000000"
 preserveAspectRatio="xMidYMid meet">
<metadata>
Created by potrace 1.14, written by Peter Selinger 2001-2017
</metadata>
<g transform="translate(0.000000,700.000000) scale(0.100000,-0.100000)"
fill="#000000" stroke="none">
<path d="M3457 4884 c-1 -1 -54 -5 -117 -9 -63 -3 -128 -8 -145 -11 -16 -2
-55 -6 -85 -10 -30 -3 -57 -7 -60 -9 -3 -2 -25 -6 -49 -10 -60 -9 -162 -41
-188 -60 -13 -9 -23 -26 -23 -39 0 -24 37 -56 202 -174 l86 -62 59 15 c187 50
271 60 488 59 131 -1 200 -5 255 -18 102 -23 98 -22 164 -45 l60 -21 94 72
c139 105 175 137 190 165 31 57 -28 77 -363 123 -122 17 -557 43 -568 34z
m-25 -83 c7 -1 14 -29 23 -92 6 -35 4 -37 -27 -41 -18 -3 -57 -5 -88 -4 l-55
1 -19 53 c-12 33 -15 57 -10 62 6 6 37 13 69 16 33 4 61 8 63 9 2 2 11 2 20 0
9 -2 20 -4 24 -4z m283 -53 c-3 -34 -7 -64 -10 -66 -6 -6 -163 -7 -169 -1 -4
4 -10 103 -7 122 0 4 44 7 96 7 l95 0 -5 -62z m216 31 c38 -7 69 -17 69 -22 0
-6 -15 -35 -32 -65 -36 -58 -31 -57 -146 -36 -34 7 -36 14 -18 69 23 71 22 71
127 54z m-762 -78 c17 -33 28 -62 23 -64 -4 -2 -33 -12 -64 -22 l-58 -18 -32
26 c-18 14 -48 39 -67 55 l-33 30 73 25 c114 39 121 38 158 -32z m1029 22 c28
-8 52 -18 52 -22 0 -13 -98 -111 -111 -111 -8 0 -40 8 -71 18 l-57 17 35 63
c40 71 32 69 152 35z"/>
<path d="M2576 4649 c3 -41 7 -102 7 -136 l2 -61 180 -87 c282 -137 348 -171
535 -275 96 -54 205 -113 241 -131 l67 -32 106 64 c155 94 210 125 316 182 52
28 109 58 125 67 21 12 34 29 43 61 30 102 60 133 117 118 17 -5 47 -24 67
-44 l36 -36 16 53 c19 62 34 84 66 96 23 8 77 2 113 -13 13 -6 17 -2 18 19 1
14 2 29 3 34 10 44 27 174 24 177 -6 6 -113 -38 -213 -86 -85 -41 -292 -170
-608 -380 l-238 -158 -147 98 c-276 184 -809 515 -865 537 -16 6 -17 1 -11
-67z"/>
<path d="M5103 4437 c-408 -137 -423 -143 -422 -167 0 -14 3 -33 7 -42 6 -15
10 -16 32 -5 14 7 68 30 120 51 52 20 117 46 143 57 95 39 290 99 344 105 40
5 66 16 101 43 60 45 120 101 107 100 -5 -1 -200 -65 -432 -142z"/>
<path d="M2469 4523 c-40 -21 -74 -43 -76 -48 -2 -6 6 -16 18 -23 17 -11 28
-9 79 15 54 26 59 31 59 61 1 17 -1 32 -3 32 -3 0 -37 -17 -77 -37z"/>
<path d="M3465 4538 c-112 -14 -130 -17 -219 -40 -49 -13 -91 -27 -93 -33 -3
-12 437 -305 458 -305 8 0 45 21 81 48 37 26 128 90 203 142 75 52 141 100
146 106 15 18 -131 62 -262 79 -77 11 -244 12 -314 3z"/>
<path d="M2200 4498 c0 -7 6 -47 14 -88 8 -41 17 -86 19 -100 3 -14 8 -42 12
-62 4 -21 12 -38 19 -39 39 -2 227 -56 345 -98 304 -109 678 -286 871 -411 59
-39 110 -70 114 -70 3 0 62 35 130 78 68 42 232 140 364 217 l241 140 1 48 c0
41 -3 47 -21 47 -58 0 -298 -100 -547 -227 l-163 -84 -67 37 c-248 135 -693
349 -1180 565 -141 63 -152 66 -152 47z"/>
<path d="M4696 4494 c-16 -42 -6 -61 51 -99 56 -37 56 -37 102 -23 l45 14 -65
45 c-35 26 -78 53 -96 62 -28 15 -32 15 -37 1z"/>
<path d="M4512 4463 c-40 -8 -57 -49 -57 -134 0 -43 3 -80 6 -83 11 -12 59 13
53 27 -3 8 1 19 9 26 12 9 17 6 25 -16 19 -48 31 -107 27 -128 -2 -11 -4 -24
-4 -28 -1 -5 -10 -6 -20 -2 -11 3 -33 -3 -52 -14 l-32 -20 31 -30 c22 -22 40
-31 64 -31 79 0 110 83 82 218 -17 85 -52 167 -83 200 -12 12 -23 21 -24 21
-1 -1 -12 -4 -25 -6z"/>
<path d="M4262 4380 c-21 -23 -52 -129 -52 -181 0 -31 1 -31 37 -24 48 9 53
12 53 36 0 33 22 17 37 -27 15 -42 19 -129 8 -164 -5 -17 -12 -20 -34 -15 -16
3 -34 0 -46 -9 -17 -12 -17 -16 -5 -30 18 -23 45 -36 79 -41 22 -2 36 4 56 25
40 41 53 93 51 190 -2 69 -8 95 -30 140 -52 107 -112 145 -154 100z"/>
<path d="M2135 4293 c-50 -37 -166 -149 -218 -211 -52 -61 -148 -215 -140
-223 5 -5 22 -11 39 -15 28 -5 33 -2 68 53 22 32 62 87 89 123 54 69 213 230
228 230 10 0 12 41 3 64 -8 22 -12 21 -69 -21z"/>
<path d="M4941 4289 l-23 -9 25 -20 c14 -11 36 -32 49 -48 20 -23 29 -26 62
-22 l39 5 -53 53 c-56 55 -61 57 -99 41z"/>
<path d="M4494 4229 c-30 -9 -31 -10 -26 -56 2 -27 5 -49 6 -50 1 -1 64 26 74
33 5 3 -11 84 -17 83 -3 0 -20 -5 -37 -10z"/>
<path d="M5127 4174 c-1 -1 -40 -4 -87 -8 -47 -4 -96 -8 -110 -11 -14 -2 -43
-6 -65 -9 -154 -22 -178 -32 -203 -80 -14 -26 -36 -49 -55 -58 -33 -15 -85
-14 -101 3 -19 18 -35 8 -54 -33 -40 -88 -97 -110 -180 -70 l-40 19 -74 -39
c-282 -154 -458 -272 -458 -307 0 -12 1 -12 70 -16 113 -6 248 -16 266 -19 11
-2 47 -7 80 -10 32 -4 95 -13 139 -21 44 -8 96 -17 115 -20 19 -3 53 -11 75
-16 22 -6 47 -12 55 -14 183 -37 467 -138 672 -241 65 -32 120 -55 123 -52 12
11 14 214 4 288 -21 151 -95 329 -185 443 -45 58 -46 58 -88 53 -108 -15 -301
-77 -395 -128 -103 -55 -233 -168 -249 -217 -4 -13 34 -20 130 -22 136 -3 277
-32 360 -75 15 -8 35 -14 46 -14 40 0 94 118 108 237 l7 63 -60 -29 c-151 -74
-483 -163 -483 -131 0 27 256 190 299 190 6 0 33 -16 61 -36 l49 -35 73 35
c40 19 74 33 77 30 7 -7 2 -126 -8 -179 -5 -27 -6 -54 -1 -60 33 -41 119 -245
103 -245 -3 0 -92 29 -197 64 -105 36 -249 80 -321 99 -123 33 -465 109 -492
110 -7 0 -13 5 -13 11 0 16 118 134 182 183 62 47 221 137 325 182 64 28 261
97 302 106 151 33 205 44 254 50 38 5 57 12 57 21 0 10 -14 13 -56 12 -30 -1
-56 -3 -57 -4z"/>
<path d="M2192 4055 c-121 -129 -192 -262 -200 -377 -4 -59 -1 -75 22 -122 15
-30 40 -66 56 -79 25 -22 34 -24 72 -16 130 24 300 94 441 180 56 34 104 65
107 68 3 3 22 19 43 34 31 24 36 31 26 44 -33 39 -179 85 -344 108 -150 21
-167 22 -172 8 -9 -22 34 -95 107 -181 39 -45 68 -87 64 -93 -10 -16 -122 -65
-166 -73 -40 -7 -42 -4 -39 39 3 28 42 148 52 159 4 5 0 25 -10 45 -28 55 -41
124 -26 139 1 2 41 -2 88 -8 l86 -12 44 32 c65 47 86 46 265 -7 146 -43 277
-106 499 -239 l36 -22 -119 -2 c-122 -1 -211 -6 -299 -15 -27 -2 -77 -7 -109
-11 -43 -4 -72 -14 -103 -36 -139 -95 -343 -175 -494 -194 -45 -6 -46 -5 -85
41 -21 26 -42 51 -45 56 -3 5 -16 8 -28 6 -20 -3 -34 -30 -96 -178 -40 -96
-72 -175 -71 -176 1 -1 48 20 104 48 128 62 396 163 488 184 10 2 53 13 94 24
74 20 232 55 300 66 19 3 46 7 60 10 14 2 45 7 70 10 25 3 77 10 115 15 150
20 253 29 390 35 39 2 74 4 79 4 28 3 -228 193 -349 260 -199 110 -549 234
-749 265 -21 4 -41 8 -45 10 -3 2 -27 7 -52 10 l-46 6 -61 -65z"/>
<path d="M5137 4111 l-27 -6 43 -65 c55 -81 104 -166 118 -203 10 -25 15 -28
46 -24 19 3 37 7 39 10 9 8 -41 98 -99 179 -76 106 -86 115 -120 109z"/>
<path d="M1432 3838 c-41 -29 -97 -140 -118 -235 -36 -168 -28 -372 21 -508
21 -56 64 -144 82 -164 5 -7 403 -9 403 -2 0 3 -5 26 -11 51 -6 25 -13 56 -15
70 -3 14 -9 41 -14 60 -5 19 -11 53 -15 74 -3 21 -7 48 -10 60 -20 90 -21 281
-1 375 8 40 27 97 42 127 15 30 24 57 22 60 -11 10 -255 54 -303 54 -36 0 -60
-6 -83 -22z m157 -44 c88 -10 86 -10 83 -35 -3 -28 -30 -71 -40 -65 -4 2 -47
7 -97 11 -49 3 -91 8 -93 10 -2 2 6 24 18 49 18 41 23 46 48 41 15 -2 51 -7
81 -11z m13 -173 c26 -1 28 -3 24 -40 -5 -54 -9 -58 -58 -55 -24 1 -76 4 -115
5 -40 1 -73 4 -73 6 0 2 5 24 11 49 l11 44 87 -4 c47 -3 98 -5 113 -5z m-41
-170 l56 -1 0 -50 0 -51 -129 2 c-70 0 -128 5 -129 10 0 5 -1 27 -1 49 0 22 1
42 1 44 1 2 34 2 74 1 39 -2 97 -4 128 -4z m-10 -180 c53 -1 76 -5 77 -13 1
-17 11 -70 16 -84 3 -7 -34 -10 -119 -10 -68 1 -126 4 -128 6 -7 9 -24 85 -20
95 2 6 24 9 50 8 27 -1 82 -2 124 -2z m131 -226 c15 -27 25 -51 23 -54 -3 -2
-39 -3 -82 -1 -164 5 -156 3 -174 35 -9 17 -20 40 -24 52 -6 22 -6 22 112 20
l118 -3 27 -49z"/>
<path d="M5425 3806 c-66 -18 -119 -36 -118 -41 1 -6 16 -48 31 -95 71 -208
64 -405 -23 -623 -25 -66 -45 -121 -43 -123 2 -2 81 -6 175 -10 l170 -6 20 28
c10 16 33 61 50 99 112 250 99 558 -30 742 -47 67 -72 70 -232 29z m175 -78
c11 -18 20 -36 20 -39 0 -6 -79 -25 -150 -34 -45 -6 -46 -6 -63 30 -10 21 -16
39 -14 42 6 5 136 31 165 32 15 1 29 -9 42 -31z m58 -166 c8 -24 11 -46 8 -49
-3 -3 -49 -6 -103 -7 l-98 -1 -9 37 c-5 21 -7 40 -5 43 3 2 23 7 45 11 21 3
40 7 42 9 1 1 26 2 54 1 51 -1 51 -1 66 -44z m23 -151 c2 -33 -2 -65 -7 -70
-2 -2 -49 -6 -104 -9 l-101 -4 5 47 c2 26 8 50 14 54 6 3 51 7 101 7 l91 1 1
-26z m-17 -179 c-9 -20 -18 -43 -21 -50 -4 -10 -28 -13 -97 -10 -100 3 -94 -2
-83 68 5 32 16 35 116 32 l101 -3 -16 -37z m-77 -184 l-20 -49 -78 2 c-100 2
-104 5 -83 58 l16 42 93 -2 93 -1 -21 -50z"/>
<path d="M1200 3775 c-112 -163 -155 -401 -102 -570 42 -138 105 -211 189
-222 37 -5 37 -5 21 18 -20 32 -52 119 -74 204 -13 50 -18 107 -19 200 0 145
21 239 76 348 16 32 29 60 29 62 0 3 -21 4 -46 3 -41 -1 -48 -5 -74 -43z"/>
<path d="M5707 3804 c-3 -4 12 -41 33 -84 57 -114 70 -180 66 -340 -4 -148
-29 -259 -86 -372 -16 -32 -25 -58 -21 -58 13 0 95 62 116 88 78 96 108 197
108 362 0 137 -14 208 -58 303 -39 81 -66 107 -113 107 -21 0 -41 -3 -45 -6z"/>
<path d="M3577 3474 c-1 -1 -42 -4 -92 -8 -99 -6 -171 -17 -283 -42 -73 -16
-74 -17 -70 -45 3 -21 0 -29 -11 -30 -9 0 -99 -2 -200 -4 -101 -2 -200 -6
-220 -9 -20 -3 -56 -8 -81 -12 -25 -3 -69 -15 -99 -27 -70 -28 -101 -81 -96
-165 9 -158 206 -266 470 -258 120 4 212 29 301 81 49 29 174 146 174 163 0 6
-39 -9 -87 -33 -165 -81 -225 -98 -343 -99 -177 -2 -283 46 -283 128 0 38 29
82 69 102 36 19 135 35 202 33 83 -2 133 -14 266 -65 109 -42 122 -44 165 -35
25 5 47 9 48 7 1 -1 -8 -24 -21 -51 l-22 -50 51 -80 c28 -44 65 -104 81 -132
19 -35 36 -53 49 -54 116 -8 121 -6 149 50 13 25 49 81 79 123 l55 77 -19 51
c-10 27 -19 56 -19 64 0 20 31 10 71 -23 l32 -27 55 32 c55 34 148 68 212 79
67 12 216 7 253 -8 62 -26 92 -100 63 -156 -59 -114 -359 -131 -525 -29 -20
12 -60 45 -89 72 -49 46 -52 47 -42 21 46 -120 168 -231 297 -270 33 -10 78
-13 148 -10 202 9 343 72 403 180 13 22 17 55 17 128 0 98 0 99 -32 127 -60
54 -173 74 -425 73 -148 -1 -167 1 -159 14 21 39 -22 70 -124 88 -16 2 -41 7
-55 10 -62 13 -302 28 -313 19z m231 -99 l43 -6 -68 -33 c-38 -18 -94 -54
-125 -79 l-56 -45 -57 48 c-32 27 -78 59 -104 72 -25 13 -48 24 -50 26 -12 7
14 12 90 18 46 4 85 7 86 8 5 4 204 -4 241 -9z"/>
<path d="M5111 3014 c-68 -35 -161 -76 -205 -90 l-81 -26 0 -209 c0 -115 2
-209 4 -209 2 0 29 26 60 58 67 68 110 129 136 196 14 33 50 81 112 146 50 54
99 112 108 129 15 29 13 73 -3 70 -4 -1 -63 -30 -131 -65z"/>
<path d="M1830 3038 c0 -62 100 -187 202 -252 31 -20 61 -36 66 -36 6 0 22
-30 37 -67 42 -106 134 -217 165 -198 6 3 9 9 6 13 -2 4 -7 83 -11 177 -3 93
-7 174 -8 180 -1 5 -42 25 -92 43 -49 18 -150 62 -222 97 -73 36 -135 65 -138
65 -3 0 -5 -10 -5 -22z"/>
<path d="M4645 2829 c-99 -36 -333 -96 -385 -98 -13 -1 -15 -35 -12 -253 2
-139 5 -255 8 -257 13 -14 457 123 488 151 13 11 15 44 15 228 0 245 -1 260
-19 259 -8 0 -51 -14 -95 -30z"/>
<path d="M2396 2698 c9 -213 12 -290 13 -345 1 -42 4 -53 17 -53 10 0 87 -21
173 -46 85 -25 192 -54 238 -64 l82 -18 -3 222 c-2 121 -4 242 -5 268 l-1 46
-97 22 c-54 12 -168 40 -253 61 -85 21 -158 39 -162 39 -4 0 -5 -60 -2 -132z"/>
<path d="M4095 2709 c-63 -11 -134 -20 -205 -25 -35 -3 -67 -7 -71 -9 -3 -2
-43 -5 -88 -6 l-82 -2 5 -211 c2 -116 5 -237 5 -269 l1 -58 78 2 c133 3 296
28 398 60 l32 10 -3 247 c-2 136 -4 252 -4 258 -1 12 -11 13 -66 3z"/>
<path d="M2994 2498 c3 -112 5 -233 6 -270 0 -76 -6 -72 125 -83 39 -4 77 -8
85 -10 19 -5 213 -18 260 -17 19 0 48 1 63 1 l29 1 -7 267 c-3 147 -8 269 -11
272 -2 3 -55 6 -117 7 -131 3 -313 12 -343 18 -12 3 -38 7 -59 10 l-37 6 6
-202z"/>
</g>
</svg>
