<?xml version="1.0" encoding="utf-8"?>
<svg xmlns="http://www.w3.org/2000/svg" viewBox="125.6447 85.028 50.3969 278.3929" width="50.3969px" height="278.3929px"><g id="object-0" transform="matrix(1, 0, 0, 1, 0, 7.105427357601002e-15)"><path style="fill: rgb(66, 66, 66);" d="M 154.46 358.102 C 156.493 358.218 158.534 358.01 160.501 357.483 C 164.176 356.498 167.837 354.467 170.335 351.561 C 172.991 348.472 174.327 344.125 174.853 340.145 C 175.429 335.796 174.763 331.632 173.523 327.466 C 172.541 329.227 171.611 331 170.476 332.67 C 169.509 334.093 168.085 335.309 167.855 337.089 C 167.407 340.549 168.021 344.252 165.835 347.24 C 164.921 348.489 163.698 349.513 162.328 350.227 C 161.587 350.614 160.8 350.912 159.986 351.101 C 159.443 351.227 158.362 351.519 157.815 351.334 C 157.477 351.425 157.369 351.29 157.492 350.927 C 157.486 350.662 157.48 350.395 157.475 350.131 C 157.463 349.595 157.446 349.059 157.434 348.524 C 157.418 347.811 157.575 346.993 157.257 346.335 C 156.858 345.51 156.073 344.732 155.503 344.019 C 154.848 343.199 154.181 342.389 153.528 341.567 C 151.583 346.056 150.3 351.342 151.319 356.236 C 151.664 357.891 152.946 358.016 154.46 358.102 Z"/><path style="fill: rgb(66, 66, 66);" d="M 171.483 130.214 C 170.311 131.822 169.061 133.089 168.851 135.135 C 168.51 138.447 168.92 142.015 166.82 144.802 C 165.045 147.158 162.129 149.154 159.078 149.067 C 158.388 149.047 158.507 148.902 158.485 148.248 C 158.467 147.718 158.449 147.188 158.434 146.658 C 158.413 145.909 158.666 144.931 158.395 144.232 C 158.062 143.372 157.165 142.473 156.599 141.75 C 155.938 140.906 155.24 140.091 154.502 139.313 C 152.533 143.666 151.326 148.97 152.253 153.746 C 152.515 155.097 153.285 155.553 154.606 155.701 C 156.592 155.924 158.661 155.772 160.611 155.352 C 164.438 154.527 168.233 152.487 170.929 149.63 C 173.765 146.626 175.172 142.266 175.764 138.249 C 176.415 133.834 175.885 129.346 174.55 125.104 C 173.559 126.828 172.657 128.603 171.483 130.214 Z"/><path style="fill: rgb(66, 66, 66);" d="M 152.825 290.526 C 154.735 290.908 156.859 290.744 158.758 290.38 C 162.678 289.628 166.63 287.658 169.395 284.75 C 175.435 278.395 175.792 267.959 173.248 260.037 C 172.28 261.721 171.393 263.451 170.258 265.033 C 169.188 266.526 167.843 267.817 167.641 269.705 C 167.261 273.248 167.679 276.908 165.402 279.888 C 164.383 281.221 163.057 282.339 161.558 283.098 C 160.907 283.427 160.219 283.69 159.506 283.852 C 159.102 283.945 157.448 284.27 157.131 283.968 C 156.866 283.714 157.152 281.785 157.151 281.377 C 157.149 280.533 157.278 279.514 156.877 278.744 C 156.019 277.098 154.442 275.619 153.292 274.169 C 151.243 278.494 150.313 283.421 150.903 288.196 C 151.06 289.473 151.51 290.262 152.825 290.526 Z"/><path style="fill: rgb(66, 66, 66);" d="M 174.438 192.414 C 173.358 194.046 172.322 195.707 171.257 197.349 C 170.227 198.936 168.865 200.379 168.755 202.337 C 168.566 205.691 168.722 209.461 166.597 212.274 C 165.727 213.426 164.585 214.337 163.338 215.052 C 162.201 215.704 160.025 216.944 158.661 216.316 C 158.182 216.095 158.296 216.051 158.304 215.447 C 158.31 214.927 158.321 214.407 158.319 213.886 C 158.317 213.051 158.422 211.998 158.084 211.211 C 157.733 210.393 156.966 209.632 156.416 208.941 C 155.763 208.12 155.095 207.31 154.442 206.488 C 153.293 208.859 152.525 211.404 152.177 214.016 C 151.878 216.259 151.65 218.903 152.155 221.133 C 152.458 222.469 153.441 222.798 154.695 222.976 C 156.96 223.298 159.243 222.936 161.429 222.328 C 164.897 221.363 168.248 219.719 170.707 217.032 C 173.464 214.02 174.98 209.813 175.623 205.835 C 176.354 201.336 175.809 196.74 174.438 192.414 Z"/><path style="fill: rgb(66, 66, 66);" d="M 127.848 320.436 C 128.655 319.201 129.456 318.022 130.329 316.835 C 131.056 315.847 131.591 314.736 131.916 313.553 C 132.577 311.151 132.121 308.631 132.955 306.265 C 134.52 301.825 138.993 298.996 143.624 298.96 C 143.717 299.986 143.469 301.083 143.851 302.069 C 144.211 303 145.26 303.752 146.041 304.33 C 146.437 304.623 146.859 304.885 147.315 305.076 C 147.548 305.175 147.973 305.367 148.23 305.365 C 148.848 305.36 148.411 305.459 148.646 305.065 C 149.304 303.964 149.03 302.066 149.02 300.86 C 149.009 299.506 148.985 298.153 148.943 296.799 C 148.91 295.742 149.033 294.501 148.735 293.475 C 148.297 291.969 145.791 292.096 144.57 292.098 C 140.288 292.11 135.824 293.88 132.488 296.536 C 129.063 299.263 127.189 303.158 126.418 307.414 C 125.976 309.855 125.906 312.351 126.065 314.822 C 126.188 316.727 126.124 319.197 127.848 320.436 Z"/><path style="fill: rgb(66, 66, 66);" d="M 127.52 253.04 C 128.57 251.44 129.736 249.89 130.743 248.269 C 131.624 246.851 132.044 245.277 131.994 243.611 C 131.943 241.921 131.908 240.313 132.503 238.696 C 133.108 237.05 134.256 235.845 135.605 234.764 C 136.961 233.678 138.558 232.346 140.198 231.725 C 140.899 231.46 142.171 231.177 142.892 231.517 C 143.359 231.737 143.231 231.645 143.268 232.185 C 143.293 232.546 143.331 232.907 143.393 233.264 C 143.861 235.92 145.766 237.272 148.255 237.96 C 148.778 235.455 148.682 232.945 148.66 230.386 C 148.651 229.266 148.679 228.13 148.589 227.013 C 148.547 226.49 148.492 225.889 148.138 225.471 C 147.384 224.581 145.506 224.672 144.482 224.66 C 142.482 224.636 140.498 225.022 138.609 225.663 C 135.394 226.754 132.296 228.505 130.048 231.089 C 127.524 233.99 126.335 237.835 125.86 241.595 C 125.59 243.734 125.582 245.901 125.791 248.046 C 125.961 249.779 126.062 251.852 127.52 253.04 Z"/><path style="fill: rgb(66, 66, 66);" d="M 127.041 181.103 C 127.249 182.775 127.851 184.151 128.416 185.719 C 129.465 184.175 130.504 182.624 131.572 181.093 C 132.594 179.628 133.222 178.082 133.145 176.27 C 133.068 174.447 133.09 172.67 133.757 170.941 C 134.414 169.237 135.636 167.857 137.016 166.689 C 138.272 165.626 139.72 164.721 141.265 164.142 C 142.05 163.848 142.892 163.648 143.732 163.793 C 144.334 163.897 144.348 163.958 144.463 164.465 C 144.535 164.781 144.506 165.148 144.556 165.472 C 144.901 167.668 146.635 169.971 149.051 170.108 C 149.547 170.136 149.363 170.229 149.558 169.836 C 149.629 169.693 149.65 169.465 149.683 169.309 C 149.775 168.874 149.802 168.453 149.812 168.008 C 149.832 167.107 149.828 166.204 149.831 165.302 C 149.837 163.431 149.876 161.545 149.777 159.677 C 149.733 158.846 149.666 157.926 148.871 157.473 C 147.869 156.902 146.252 156.981 145.16 157.007 C 139.222 157.148 132.709 160.433 129.641 165.621 C 127.884 168.592 127.075 172.19 126.858 175.606 C 126.742 177.439 126.815 179.282 127.041 181.103 Z"/><path style="fill: rgb(66, 66, 66);" d="M 128.102 117.424 C 128.374 117.785 128.647 118.084 128.969 117.889 C 129.255 117.716 129.587 116.942 129.765 116.668 C 130.24 115.936 130.715 115.202 131.222 114.492 C 132.117 113.24 132.973 112.01 133.243 110.461 C 133.517 108.887 133.123 107.286 133.359 105.695 C 133.827 102.544 136.037 100.027 138.64 98.332 C 139.931 97.492 141.543 96.596 143.112 96.532 C 143.392 96.521 144.38 96.478 144.59 96.731 C 144.692 96.854 144.634 97.552 144.649 97.702 C 144.698 98.218 144.773 98.734 144.915 99.233 C 145.546 101.458 147.501 102.439 149.564 103.099 C 149.772 102.003 150.027 101.024 150.028 99.902 C 150.029 98.833 150.025 97.764 150.009 96.695 C 149.983 94.95 150.212 92.835 149.705 91.145 C 149.373 90.038 148.343 89.94 147.324 89.846 C 145.337 89.662 143.34 89.872 141.412 90.371 C 138.373 91.158 135.365 92.496 132.969 94.554 C 130.55 96.631 128.982 99.406 128.024 102.422 C 126.944 105.822 126.743 109.428 127.106 112.962 C 127.244 114.321 127.241 116.284 128.102 117.424 Z"/><path style="fill: rgb(66, 66, 66);" d="M 139.212 153.779 C 140.056 154.14 140.924 154.444 141.809 154.687 C 143.517 155.155 145.523 155.57 147.298 155.343 C 151.232 154.841 151.152 150.074 150.837 147.053 C 150.438 143.227 149.408 139.489 147.906 135.951 C 147.163 134.2 146.308 132.498 145.368 130.845 C 144.55 129.405 143.79 128.129 142.021 127.855 C 141.196 128.698 140.329 129.498 139.558 130.392 C 139.149 130.866 138.475 131.493 138.373 132.149 C 138.274 132.784 138.766 133.349 139.115 133.825 C 139.689 134.608 140.289 135.37 140.841 136.17 C 143.107 139.453 144.404 143.721 143.762 147.729 C 142.691 147.399 141.62 147.069 140.549 146.739 C 140.134 146.611 139.473 146.248 139.044 146.275 C 138.63 146.301 138.256 146.977 138.018 147.363 C 137.512 148.184 137.181 149.097 136.915 150.019 C 136.695 150.782 136.282 151.741 136.83 152.449 C 137.336 153.104 138.47 153.461 139.212 153.779 Z"/><path style="fill: rgb(66, 66, 66);" d="M 139.091 221.024 C 139.893 221.368 140.718 221.66 141.558 221.897 C 143.315 222.391 145.368 222.814 147.199 222.588 C 150.723 222.153 150.961 218.06 150.772 215.256 C 150.514 211.435 149.597 207.685 148.173 204.134 C 147.473 202.388 146.654 200.691 145.746 199.044 C 145.271 198.183 144.811 197.211 144.176 196.457 C 143.641 195.821 142.897 195.388 142.28 194.839 C 141.012 196.026 138.995 197.443 138.378 199.135 C 138.122 199.838 138.494 200.373 138.895 200.943 C 139.468 201.758 140.071 202.551 140.665 203.35 C 143.187 206.738 143.959 210.836 143.592 214.966 C 142.523 214.635 141.453 214.304 140.384 213.972 C 140.029 213.862 139.267 213.448 138.91 213.516 C 138.494 213.595 138.14 214.344 137.89 214.768 C 137.219 215.906 135.911 218.249 136.699 219.588 C 137.138 220.331 138.343 220.704 139.091 221.024 Z"/><path style="fill: rgb(66, 66, 66);" d="M 138.23 288.826 C 139.074 289.179 139.944 289.466 140.831 289.69 C 142.504 290.111 144.477 290.488 146.202 290.223 C 149.609 289.697 149.798 285.606 149.607 282.886 C 149.336 279.029 148.403 275.244 146.955 271.663 C 146.242 269.901 145.409 268.188 144.484 266.528 C 144.031 265.714 143.594 264.795 142.987 264.084 C 142.427 263.428 141.64 262.985 140.993 262.421 C 140.262 263.22 139.532 264.02 138.8 264.819 C 138.264 265.403 137.431 266.054 137.202 266.835 C 136.907 267.842 137.731 268.611 138.272 269.352 C 138.857 270.152 139.481 270.934 140.027 271.761 C 142.167 275.005 142.794 278.852 142.402 282.654 C 141.291 282.295 140.179 281.934 139.068 281.574 C 138.624 281.43 137.959 281.063 137.596 281.268 C 137.274 281.447 136.904 282.141 136.701 282.457 C 136.246 283.162 135.894 283.928 135.689 284.743 C 135.518 285.425 135.163 286.942 135.611 287.47 C 136.137 288.093 137.483 288.515 138.23 288.826 Z"/><path style="fill: rgb(66, 66, 66);" d="M 136.282 355.176 C 138.501 356.753 141.706 357.437 144.366 357.662 C 146.281 357.824 148.182 357.652 149.17 355.772 C 150.247 353.723 150.057 351.105 149.788 348.895 C 149.169 343.792 147.449 338.889 145.013 334.377 C 144.27 333.002 142.581 329.218 140.514 330.842 C 139.528 331.617 138.398 332.871 137.69 333.904 C 136.913 335.036 137.884 335.88 138.588 336.77 C 140.093 338.673 141.347 340.717 142.094 343.039 C 142.857 345.408 142.927 347.701 142.776 350.157 C 141.163 349.64 139.55 349.122 137.937 348.605 C 136.965 349.563 136.395 350.794 136.008 352.085 C 135.67 353.217 135.152 354.374 136.282 355.176 Z"/><path style="fill: rgb(66, 66, 66);" d="M 156.139 105.687 C 157.051 107.299 158.118 108.819 159.295 110.247 C 160.576 111.8 162.069 112.979 163.583 114.289 C 164.156 113.437 164.73 112.585 165.303 111.733 C 165.521 111.409 166.809 109.967 166.76 109.568 C 166.732 109.342 165.989 108.782 165.821 108.603 C 165.517 108.28 165.218 107.952 164.927 107.618 C 164.423 107.041 163.938 106.447 163.48 105.833 C 161.482 103.16 160.043 100.12 159.388 96.839 C 160.655 96.845 161.921 96.774 163.188 96.803 C 164.073 96.823 165.315 97.211 166.147 96.797 C 167.352 96.199 167.837 93.558 167.743 92.357 C 167.636 90.983 166.37 90.841 165.226 90.763 C 162.899 90.606 160.565 90.517 158.235 90.419 C 157.105 90.371 155.974 90.323 154.844 90.282 C 154.294 90.262 153.494 90.131 153.061 90.576 C 152.099 91.566 152.672 94.275 152.807 95.478 C 153.212 99.072 154.36 102.542 156.139 105.687 Z"/><path style="fill: rgb(66, 66, 66);" d="M 158.23 245.49 C 159.154 246.565 160.195 247.592 161.418 248.325 C 161.635 248.455 162.094 248.809 162.365 248.804 C 162.722 248.798 163.099 248.007 163.33 247.667 C 164.045 246.607 164.761 245.548 165.476 244.489 C 161.956 240.929 159.067 236.775 158.132 231.773 C 159.647 231.78 161.164 231.705 162.678 231.773 C 163.643 231.816 164.799 232.141 165.436 231.198 C 166.062 230.272 166.462 228.621 166.486 227.499 C 166.501 226.815 166.299 226.293 165.666 225.978 C 164.712 225.504 163.357 225.626 162.338 225.574 C 161.066 225.508 159.794 225.451 158.521 225.397 C 156.966 225.332 155.41 225.26 153.855 225.211 C 153.443 225.198 152.177 225.024 151.884 225.283 C 151.715 225.432 151.652 226.069 151.609 226.267 C 150.917 229.471 151.759 232.955 152.843 235.973 C 154.072 239.394 155.854 242.726 158.23 245.49 Z"/><path style="fill: rgb(66, 66, 66);" d="M 166.094 158.109 C 164.005 157.706 161.7 157.822 159.577 157.728 C 158.376 157.675 157.175 157.626 155.974 157.578 C 155.195 157.547 154.116 157.304 153.36 157.575 C 151.985 158.07 152.493 160.841 152.589 161.911 C 152.927 165.676 154.052 169.339 155.866 172.654 C 156.753 174.274 157.794 175.808 158.951 177.247 C 160.269 178.886 161.872 180.158 163.415 181.57 C 164.447 180.065 165.48 178.559 166.512 177.054 C 163.471 173.033 160.023 169.248 159.314 164.056 C 160.591 164.062 161.869 164.047 163.146 164.061 C 163.984 164.07 164.954 164.251 165.783 164.103 C 167.081 163.871 167.458 161.366 167.602 160.325 C 167.772 159.101 167.332 158.347 166.094 158.109 Z"/><path style="fill: rgb(66, 66, 66);" d="M 155.121 308.006 C 156.012 309.585 157.052 311.078 158.2 312.48 C 159.514 314.084 161.04 315.299 162.602 316.643 C 163.178 315.782 163.755 314.921 164.331 314.059 C 164.594 313.666 165.802 312.332 165.759 311.926 C 165.735 311.696 164.965 311.108 164.794 310.925 C 164.56 310.674 164.328 310.42 164.1 310.163 C 163.539 309.529 163 308.878 162.492 308.201 C 160.494 305.548 159.03 302.532 158.452 299.246 C 159.567 299.251 160.684 299.279 161.799 299.252 C 162.379 299.236 162.959 299.187 163.539 299.214 C 163.983 299.235 164.478 299.364 164.919 299.239 C 165.798 298.99 166.013 298.059 166.254 297.287 C 166.493 296.52 166.79 295.675 166.75 294.859 C 166.695 293.727 165.88 293.306 164.853 293.125 C 162.819 292.766 160.636 292.854 158.576 292.769 C 157.398 292.72 156.219 292.673 155.041 292.621 C 154.266 292.587 153.173 292.325 152.444 292.69 C 151.066 293.381 151.664 296.304 151.781 297.509 C 152.144 301.201 153.3 304.778 155.121 308.006 Z"/><path style="fill: rgb(66, 66, 66);" d="M 139.917 210.101 C 140.347 209.535 140.768 208.963 141.196 208.396 C 141.421 208.098 141.619 207.94 141.577 207.597 C 141.543 207.319 141.254 206.973 141.12 206.714 C 140.452 205.424 139.784 204.133 139.116 202.843 C 137.064 204.102 135.394 206.07 133.897 207.955 C 132.299 209.967 131.132 212.241 130.204 214.631 C 129.287 216.993 128.688 219.486 128.672 222.029 C 128.658 224.324 128.89 226.854 130.784 228.409 C 131.937 227.539 133.065 226.639 134.242 225.802 C 135.212 225.113 135.691 224.471 135.559 223.242 C 135.305 220.877 135.092 218.706 135.845 216.391 C 136.652 213.908 138.373 212.133 139.917 210.101 Z"/><path style="fill: rgb(66, 66, 66);" d="M 138.765 277.742 C 139.192 277.178 139.61 276.608 140.035 276.042 C 140.26 275.743 140.453 275.589 140.411 275.246 C 140.376 274.966 140.083 274.617 139.947 274.357 C 139.266 273.052 138.585 271.746 137.904 270.441 C 134.068 273.307 131.053 277.251 129.228 281.686 C 128.212 284.154 127.513 286.802 127.477 289.484 C 127.449 291.641 127.603 294.776 129.686 296.022 C 130.868 295.126 132.054 294.238 133.24 293.348 C 134.111 292.696 134.509 291.983 134.397 290.878 C 134.156 288.503 133.917 286.352 134.682 284.025 C 135.496 281.545 137.224 279.775 138.765 277.742 Z"/><path style="fill: rgb(66, 66, 66);" d="M 137.602 145.921 C 138.81 144.201 140.542 142.702 141.548 140.85 C 141.815 140.36 141.738 140.437 141.474 139.924 C 141.369 139.72 141.264 139.516 141.16 139.312 C 140.947 138.898 140.735 138.484 140.522 138.071 C 140.063 137.178 139.604 136.284 139.145 135.391 C 135.855 138.304 132.892 141.633 131.033 145.653 C 129.275 149.454 128.296 153.897 129.082 158.073 C 129.238 158.905 129.528 159.701 130.087 160.348 C 130.376 160.683 130.745 161.101 131.126 161 C 131.528 160.893 132.171 160.191 132.495 159.941 C 133.642 159.054 135.918 158.078 135.745 156.351 C 135.558 154.482 135.24 152.736 135.558 150.843 C 135.857 149.068 136.568 147.394 137.602 145.921 Z"/><path style="fill: rgb(66, 66, 66);" d="M 136.489 348.456 C 137.673 346.706 139.127 345.098 140.403 343.41 C 140.713 343 140.743 343.016 140.619 342.583 C 140.561 342.38 140.389 342.13 140.289 341.933 C 140.068 341.498 139.847 341.062 139.625 340.626 C 139.162 339.714 138.698 338.801 138.235 337.889 C 134.868 340.147 132.073 343.871 130.293 347.486 C 128.471 351.186 127.517 355.371 127.956 359.497 C 128.05 360.381 128.222 361.27 128.661 362.054 C 128.868 362.423 129.129 362.763 129.43 363.059 C 129.884 363.507 129.932 363.546 130.464 363.137 C 131.396 362.421 132.336 361.714 133.254 360.979 C 133.982 360.395 134.636 359.957 134.722 358.963 C 134.803 358.027 134.471 357.038 134.418 356.098 C 134.369 355.21 134.4 354.319 134.53 353.438 C 134.796 351.65 135.477 349.951 136.489 348.456 Z"/><path style="fill: rgb(66, 66, 66);" d="M 174.641 288.063 C 174.553 287.917 174.416 287.694 174.272 287.598 C 173.831 287.309 174.104 287.444 173.71 287.626 C 173.332 287.801 172.951 288.213 172.626 288.463 C 171.972 288.967 171.301 289.43 170.615 289.888 C 169.118 290.888 168.916 292.136 168.496 293.779 C 168.143 295.164 167.716 296.549 167.209 297.884 C 166.153 300.663 164.485 303.083 161.852 304.569 C 163.132 306.35 164.413 308.131 165.693 309.912 C 167.057 308.953 168.051 307.571 169.039 306.234 C 170.109 304.785 171.08 303.262 171.909 301.662 C 173.385 298.816 174.389 295.736 174.799 292.554 C 174.972 291.213 175.384 289.295 174.641 288.063 Z"/><path style="fill: rgb(66, 66, 66);" d="M 167.338 107.321 C 167.537 107.225 167.702 106.849 167.843 106.668 C 168.434 105.906 169.029 105.146 169.612 104.378 C 171.843 101.442 173.694 98.302 174.792 94.762 C 175.315 93.077 175.67 91.34 175.858 89.586 C 176.023 88.051 176.335 86.19 175.064 85.028 C 173.458 86.189 171.122 87.322 170.158 89.12 C 169.679 90.014 169.595 91.026 169.335 91.991 C 169.117 92.8 168.864 93.604 168.601 94.4 C 168.103 95.906 167.509 97.395 166.64 98.729 C 166.222 99.371 165.741 99.973 165.195 100.511 C 164.894 100.808 164.572 101.086 164.235 101.342 C 164.008 101.514 163.389 101.773 163.268 101.988 C 163.009 102.452 163.925 103.751 164.252 104.264 C 164.714 104.989 165.245 105.671 165.844 106.287 C 166.121 106.572 166.573 107.128 166.952 107.287 C 167.301 107.435 167.008 107.482 167.338 107.321 Z"/><path style="fill: rgb(66, 66, 66);" d="M 174.593 224.025 C 174.651 223.198 175.048 220.409 173.844 220.036 C 173.363 219.887 172.242 221.123 171.754 221.483 C 171.121 221.951 170.379 222.281 169.795 222.813 C 168.791 223.728 168.465 224.997 168.157 226.269 C 167.82 227.658 167.456 229.046 166.952 230.386 C 165.9 233.184 164.166 235.601 161.584 237.171 C 162.928 239.022 164.272 240.873 165.617 242.723 C 167.931 239.756 170.318 236.882 171.989 233.483 C 173.445 230.524 174.362 227.318 174.593 224.025 Z"/><path style="fill: rgb(66, 66, 66);" d="M 175.338 152.731 C 174.996 152.256 174.907 152.238 174.448 152.614 C 173.726 153.205 173.032 153.785 172.232 154.27 C 170.87 155.094 170.054 156.177 169.578 157.698 C 168.617 160.767 168.131 163.894 166.134 166.532 C 165.632 167.195 165.059 167.799 164.421 168.332 C 164.082 168.615 163.728 168.875 163.358 169.117 C 162.852 169.448 162.967 169.532 163.239 170.064 C 164.134 171.815 165.442 173.295 166.708 174.783 C 168.374 173.542 169.513 171.697 170.679 170.011 C 171.889 168.262 172.951 166.407 173.787 164.45 C 174.498 162.785 175.04 161.048 175.381 159.27 C 175.705 157.581 176.032 155.618 175.779 153.9 C 175.717 153.478 175.589 153.08 175.338 152.731 Z"/><path style="fill: rgb(66, 66, 66);" d="M 133.709 191.978 C 134.89 190.39 135.239 188.343 136.055 186.569 C 136.826 184.894 137.77 183.304 138.994 181.921 C 139.634 181.199 140.319 180.518 140.962 179.799 C 141.372 179.339 142.629 178.147 142.469 177.653 C 142.341 177.26 141.593 176.695 141.308 176.383 C 141.023 176.071 140.737 175.759 140.452 175.447 C 140.218 175.191 139.804 174.547 139.494 174.399 C 139.194 174.256 138.854 174.466 138.531 174.688 C 137.175 175.621 135.955 177.079 134.861 178.297 C 132.661 180.747 130.801 183.523 129.65 186.622 C 128.531 189.637 127.383 193.946 129.212 196.884 C 130.682 195.282 132.414 193.718 133.709 191.978 Z"/><path style="fill: rgb(66, 66, 66);" d="M 129.472 119.994 C 128.925 121.653 128.639 123.373 128.539 125.114 C 128.449 126.674 128.31 128.285 129.368 129.578 C 130.814 128.026 132.32 126.523 133.694 124.907 C 134.964 123.413 135.128 121.473 135.836 119.702 C 136.517 118 137.53 116.588 138.722 115.208 C 139.377 114.449 140.056 113.711 140.721 112.96 C 141.262 112.349 142.106 111.612 142.478 110.884 C 142.701 110.448 142.734 110.691 142.472 110.27 C 142.352 110.078 142.101 109.87 141.94 109.697 C 141.636 109.37 141.332 109.042 141.029 108.715 C 140.725 108.388 140.421 108.06 140.118 107.733 C 139.817 107.408 139.511 106.908 139.162 106.998 C 138.562 107.152 137.524 108.334 137.09 108.79 C 136.471 109.439 135.915 110.166 135.344 110.857 C 133.028 113.657 130.628 116.49 129.472 119.994 Z"/><path style="fill: rgb(66, 66, 66);" d="M 128.248 254.727 C 127.67 256.373 127.338 258.102 127.246 259.843 C 127.153 261.593 127.468 263.035 127.856 264.719 C 129.304 263.161 130.78 261.628 132.198 260.042 C 132.88 259.279 133.427 258.589 133.677 257.575 C 133.91 256.628 134.118 255.701 134.48 254.792 C 135.803 251.47 138.354 249.035 140.691 246.419 C 140.876 246.212 141.286 245.92 141.361 245.671 C 141.462 245.335 141.43 245.556 141.226 245.226 C 140.977 244.822 140.495 244.432 140.173 244.081 C 139.654 243.516 139.013 242.48 138.353 242.102 C 137.942 241.868 138.112 241.799 137.632 242.162 C 137.486 242.273 137.337 242.38 137.19 242.49 C 136.827 242.762 136.457 243.033 136.136 243.356 C 135.506 243.99 134.952 244.721 134.376 245.403 C 131.969 248.251 129.501 251.162 128.248 254.727 Z"/><path style="fill: rgb(66, 66, 66);" d="M 127.546 328.783 C 127.562 329.48 127.511 330.346 127.752 331.014 C 127.838 331.253 127.982 331.594 128.232 331.704 C 128.678 331.9 128.85 331.451 129.186 331.083 C 130.455 329.694 131.984 328.358 133.076 326.828 C 134.082 325.417 134.434 323.531 135.102 321.95 C 135.824 320.242 136.704 318.647 137.931 317.248 C 139.075 315.943 140.279 314.7 141.401 313.374 C 141.727 312.989 141.767 313.115 141.495 312.674 C 141.403 312.525 141.232 312.384 141.114 312.253 C 140.821 311.931 140.529 311.608 140.236 311.286 C 139.624 310.611 139.012 309.936 138.4 309.261 C 135.195 311.841 132.508 314.825 130.41 318.389 C 128.53 321.578 127.461 325.058 127.546 328.783 Z"/><path style="fill: rgb(66, 66, 66);" d="M 132.081 273.727 C 133.337 272.18 133.887 270.315 134.794 268.574 C 135.587 267.052 136.572 265.632 137.741 264.374 C 138.347 263.721 139.005 263.125 139.679 262.542 C 140.011 262.257 140.346 261.976 140.681 261.693 C 140.848 261.552 141.185 261.385 141.273 261.191 C 141.413 260.882 141.357 261.088 141.205 260.747 C 140.841 259.934 140.098 259.141 139.581 258.413 C 139.379 258.127 139.065 257.449 138.781 257.289 C 138.47 257.114 138.174 257.391 137.797 257.608 C 136.391 258.415 135.069 259.371 133.868 260.46 C 128.784 265.069 125.546 272.176 128.421 278.845 C 129.616 277.084 130.74 275.378 132.081 273.727 Z"/><path style="fill: rgb(66, 66, 66);" d="M 131.742 207.874 C 132.399 206.966 133.211 206.193 133.829 205.255 C 134.98 203.51 135.558 201.469 136.653 199.686 C 137.782 197.847 139.215 196.275 140.858 194.885 C 141.305 194.506 141.923 194.106 142.284 193.639 C 142.572 193.267 142.549 193.485 142.359 193.056 C 142.243 192.793 141.984 192.515 141.817 192.274 C 141.128 191.279 140.438 190.284 139.749 189.289 C 135.795 192.221 132.096 195.033 129.949 199.606 C 129.034 201.556 128.473 203.542 128.445 205.704 C 128.423 207.382 128.54 209.658 129.734 210.979 C 130.424 209.957 131.019 208.873 131.742 207.874 Z"/><path style="fill: rgb(66, 66, 66);" d="M 130.821 343.058 C 131.474 342.145 132.307 341.387 132.941 340.464 C 134.135 338.726 134.673 336.627 135.781 334.826 C 136.917 332.982 138.357 331.365 140.01 329.968 C 140.451 329.596 141.035 329.21 141.386 328.744 C 141.672 328.365 141.657 328.579 141.47 328.151 C 141.357 327.893 141.101 327.618 140.937 327.381 C 140.245 326.382 139.553 325.384 138.861 324.386 C 135.479 326.931 132.097 329.335 129.917 333.062 C 127.526 337.15 126.783 341.846 128.714 346.274 C 129.439 345.217 130.076 344.101 130.821 343.058 Z"/><path style="fill: rgb(66, 66, 66);" d="M 173.833 234.803 C 172.288 236.693 170.678 238.548 169.195 240.486 C 167.872 242.214 167.042 244.164 165.934 246.02 C 164.775 247.963 163.304 249.458 161.753 251.072 C 161.417 251.421 160.796 252.02 160.907 252.387 C 161.037 252.818 161.813 253.414 162.105 253.744 C 162.917 254.666 163.73 255.587 164.542 256.507 C 169.981 251.253 177.115 242.969 173.833 234.803 Z"/><path style="fill: rgb(66, 66, 66);" d="M 170.371 172.801 C 169.008 174.504 168.211 176.481 167.084 178.332 C 165.913 180.253 164.473 181.79 162.933 183.405 C 162.596 183.758 161.962 184.355 162.072 184.724 C 162.201 185.154 162.978 185.751 163.269 186.081 C 164.065 186.984 164.861 187.886 165.656 188.789 C 168.741 186.153 171.405 183.025 173.328 179.442 C 174.275 177.678 175.176 175.746 175.632 173.788 C 176.154 171.545 175.671 169.242 175.058 167.071 C 173.494 168.98 171.913 170.874 170.371 172.801 Z"/><path style="fill: rgb(66, 66, 66);" d="M 174.228 302.157 C 172.673 304.048 171.098 305.921 169.569 307.833 C 168.17 309.582 167.336 311.622 166.167 313.516 C 164.987 315.431 163.532 316.94 162.015 318.57 C 161.683 318.926 161.095 319.514 161.212 319.884 C 161.349 320.317 162.132 320.908 162.43 321.24 C 163.203 322.1 163.976 322.96 164.749 323.821 C 167.953 321.441 170.41 318.113 172.312 314.638 C 173.335 312.769 174.413 310.752 174.766 308.63 C 175.126 306.464 174.752 304.266 174.228 302.157 Z"/><path style="fill: rgb(66, 66, 66);" d="M 162.086 117.4 C 162.117 117.751 163.046 118.463 163.291 118.734 C 164.12 119.652 164.95 120.57 165.78 121.489 C 168.923 119.287 171.513 115.669 173.352 112.341 C 174.372 110.494 175.385 108.445 175.748 106.351 C 176.128 104.156 175.713 101.937 175.219 99.795 C 173.692 101.656 172.154 103.507 170.642 105.38 C 169.212 107.151 168.381 109.168 167.201 111.095 C 166.01 113.04 164.533 114.559 162.995 116.212 C 162.798 116.423 162.064 117.145 162.086 117.4 Z"/><path style="fill: rgb(66, 66, 66);" d="M 130.392 131.616 C 128.432 135.415 127.837 139.975 129.72 143.926 C 130.429 142.88 131.049 141.775 131.778 140.743 C 132.442 139.804 133.291 139.023 133.937 138.073 C 135.166 136.264 135.742 134.099 136.914 132.244 C 138.094 130.375 139.579 128.827 141.258 127.405 C 141.619 127.099 141.96 126.775 142.303 126.447 C 142.715 126.053 142.602 126.194 142.46 125.767 C 142.371 125.5 142.068 125.216 141.907 124.989 C 141.192 123.984 140.478 122.978 139.764 121.973 C 136.227 124.881 132.544 127.445 130.392 131.616 Z"/><path style="fill: rgb(66, 66, 66);" d="M 145.648 102.365 C 144.631 101.241 143.648 100.087 142.655 98.941 C 142.12 98.323 141.875 98.109 141.087 98.437 C 140.497 98.682 139.915 98.949 139.361 99.266 C 138.798 99.589 138.26 99.96 137.777 100.394 C 137.525 100.62 137.287 100.862 137.067 101.119 C 136.644 101.611 136.688 101.516 136.899 101.989 C 137.187 102.635 138.04 103.333 138.498 103.872 C 139.075 104.551 139.651 105.23 140.228 105.909 C 142.418 108.488 144.608 111.068 146.797 113.648 C 148.633 112.016 150.469 110.383 152.305 108.751 C 150.193 106.516 147.728 104.665 145.648 102.365 Z"/><path style="fill: rgb(66, 66, 66);" d="M 163.268 271.539 C 166.058 268.842 168.579 265.834 170.484 262.442 C 171.404 260.804 172.397 258.964 172.751 257.102 C 173.131 255.101 172.641 253.036 171.708 251.253 C 170.825 252.165 169.983 253.117 169.09 254.02 C 168.337 254.781 167.395 255.431 166.802 256.333 C 166.258 257.161 166.181 258.075 165.981 259.019 C 165.769 260.019 165.432 260.994 164.928 261.886 C 164.36 262.889 163.598 263.684 162.734 264.434 C 161.863 265.192 160.538 266.028 159.928 267.016 C 159.341 267.968 160.308 268.762 160.896 269.479 C 161.567 270.296 162.313 271.055 163.268 271.539 Z"/><path style="fill: rgb(66, 66, 66);" d="M 164.323 203.85 C 167.299 201.353 169.737 198.09 171.682 194.746 C 173.618 191.418 174.916 187.691 173.088 183.98 C 171.981 184.959 170.894 185.96 169.776 186.928 C 168.868 187.714 167.812 188.366 167.472 189.583 C 167.168 190.673 167.111 191.777 166.689 192.848 C 166.307 193.816 165.776 194.722 165.123 195.533 C 164.36 196.481 163.417 197.218 162.517 198.025 C 161.966 198.519 161.165 199.146 160.992 199.914 C 160.643 201.469 163.264 203.198 164.323 203.85 Z"/><path style="fill: rgb(66, 66, 66);" d="M 161.333 337.115 C 161.787 337.656 162.374 338.376 163.03 338.682 C 163.514 338.907 163.527 338.895 163.939 338.531 C 164.175 338.322 164.404 338.107 164.629 337.886 C 165.127 337.398 165.602 336.886 166.062 336.361 C 168.169 333.959 170.036 331.289 171.55 328.475 C 173.318 325.19 173.235 322.051 172.121 318.546 C 170.586 320.085 169.036 321.611 167.522 323.173 C 166.29 324.443 166.498 326.263 165.873 327.865 C 165.336 329.243 164.504 330.483 163.466 331.532 C 162.879 332.125 162.208 332.607 161.585 333.158 C 161.314 333.398 159.734 334.644 159.732 334.973 C 159.73 335.252 160.428 335.936 160.591 336.156 C 160.83 336.482 161.073 336.806 161.333 337.115 Z"/><path style="fill: rgb(66, 66, 66);" d="M 161.044 145.462 C 161.343 145.826 161.642 146.191 161.942 146.555 C 162.415 147.131 162.401 147.25 163.045 146.823 C 164.294 145.996 165.27 144.847 165.988 143.54 C 166.123 143.295 166.561 142.689 166.54 142.409 C 166.521 142.16 165.891 141.618 165.745 141.44 C 165.13 140.691 164.515 139.941 163.9 139.191 C 162.593 137.597 161.285 136.004 159.977 134.41 C 159.369 133.668 158.76 132.927 158.152 132.185 C 157.804 131.761 157.456 131.337 157.108 130.913 C 157.021 130.807 156.934 130.701 156.847 130.595 C 156.698 130.198 156.502 130.171 156.259 130.515 C 155.52 130.759 154.695 131.658 154.058 132.124 C 153.232 132.728 152.406 133.332 151.58 133.935 C 154.094 136.996 156.607 140.058 159.121 143.119 C 159.762 143.901 160.403 144.682 161.044 145.462 Z"/><path style="fill: rgb(66, 66, 66);" d="M 160.271 348.076 C 160.527 348.388 160.927 349.131 161.282 349.306 C 161.711 349.516 162.628 348.718 163.053 348.361 C 164.204 347.399 164.903 346.074 165.526 344.734 C 163.164 341.86 160.802 338.986 158.44 336.111 C 157.833 335.374 157.226 334.635 156.62 333.897 C 156.389 333.615 156.136 333.136 155.84 332.947 C 155.689 332.549 155.491 332.526 155.247 332.877 C 155.137 332.958 155.028 333.039 154.918 333.119 C 153.476 334.184 152.034 335.248 150.591 336.312 C 153.437 339.772 156.283 343.231 159.13 346.691 C 159.511 347.153 159.891 347.615 160.271 348.076 Z"/><path style="fill: rgb(66, 66, 66);" d="M 160.251 280.964 C 160.396 281.141 160.934 282.019 161.135 282.041 C 161.317 282.059 161.82 281.601 161.953 281.507 C 162.418 281.18 162.864 280.822 163.264 280.417 C 163.959 279.712 164.919 278.492 165.045 277.47 C 165.125 276.813 164.273 276.123 163.826 275.576 C 163.254 274.88 162.683 274.182 162.111 273.485 C 159.841 270.714 157.571 267.945 155.3 265.175 C 153.639 266.408 151.977 267.64 150.316 268.873 C 152.571 271.618 154.827 274.363 157.082 277.108 C 158.138 278.393 159.195 279.679 160.251 280.964 Z"/><path style="fill: rgb(66, 66, 66);" d="M 168.512 120.829 C 167.775 121.579 167.663 121.957 167.524 122.976 C 167.418 123.757 167.231 124.526 166.96 125.265 C 166.47 126.6 165.702 127.81 164.747 128.861 C 163.688 130.026 162.384 130.902 161.321 132.066 C 161.189 132.21 160.832 132.477 160.774 132.658 C 160.673 132.973 160.782 132.972 161.049 133.257 C 161.318 133.545 161.586 133.833 161.855 134.121 C 162.435 134.743 163.016 135.364 163.596 135.986 C 163.947 136.362 164.033 136.645 164.547 136.478 C 164.751 136.412 164.818 136.34 164.985 136.21 C 165.63 135.705 166.2 134.974 166.749 134.369 C 168.972 131.918 170.921 129.214 172.435 126.268 C 173.211 124.758 173.979 123.196 174.081 121.475 C 174.187 119.691 173.701 117.922 173.074 116.269 C 171.552 117.786 170.02 119.296 168.512 120.829 Z"/><path style="fill: rgb(66, 66, 66);" d="M 161.004 212.817 C 161.267 213.137 161.529 213.458 161.792 213.778 C 162.264 214.354 162.252 214.495 162.901 214.075 C 164.158 213.263 165.135 212.113 165.854 210.809 C 165.992 210.559 166.439 209.941 166.417 209.655 C 166.397 209.401 165.756 208.849 165.608 208.668 C 164.981 207.903 164.353 207.138 163.726 206.372 C 162.475 204.846 161.224 203.321 159.973 201.795 C 159.346 201.03 158.719 200.266 158.093 199.501 C 157.733 199.063 157.374 198.624 157.015 198.186 C 156.562 197.634 156.602 197.434 155.997 197.874 C 154.486 198.974 152.976 200.075 151.465 201.175 C 154.033 204.309 156.601 207.442 159.169 210.576 C 159.78 211.324 160.392 212.07 161.004 212.817 Z"/><path style="fill: rgb(66, 66, 66);" d="M 144.54 304.585 C 143.478 303.442 142.465 302.253 141.433 301.083 C 141.26 300.887 141.087 300.691 140.913 300.494 C 140.763 300.552 140.614 300.61 140.465 300.669 C 140.176 300.714 139.857 300.912 139.589 301.029 C 139.024 301.279 138.469 301.55 137.947 301.882 C 137.379 302.244 136.854 302.667 136.403 303.17 C 136.208 303.388 135.889 303.68 135.798 303.953 C 135.637 304.437 135.777 304.424 136.178 304.855 C 137.293 306.053 138.424 307.235 139.52 308.449 C 141.723 310.889 143.668 313.531 145.692 316.118 C 147.621 314.393 149.55 312.667 151.478 310.942 C 149.077 308.93 146.675 306.884 144.54 304.585 Z"/><path style="fill: rgb(66, 66, 66);" d="M 145.301 169.347 C 144.231 168.184 143.204 166.983 142.157 165.799 C 141.748 165.337 141.845 165.438 141.317 165.531 C 141.032 165.581 140.719 165.787 140.456 165.908 C 139.896 166.166 139.345 166.441 138.824 166.772 C 138.255 167.134 137.724 167.551 137.263 168.044 C 137.064 168.257 136.737 168.541 136.641 168.81 C 136.47 169.29 136.611 169.273 137.013 169.705 C 138.128 170.903 139.259 172.085 140.356 173.3 C 142.572 175.754 144.534 178.407 146.573 181.006 C 148.482 179.299 150.391 177.591 152.3 175.884 C 149.909 173.774 147.464 171.697 145.301 169.347 Z"/><path style="fill: rgb(66, 66, 66);" d="M 144.477 237.402 C 143.478 236.274 142.413 235.153 141.497 233.957 C 141.337 233.748 141.187 233.352 140.978 233.191 C 140.654 232.94 140.577 233.049 140.171 233.206 C 139.511 233.46 138.861 233.746 138.242 234.089 C 137.662 234.411 137.108 234.778 136.604 235.21 C 136.31 235.463 135.36 236.166 135.338 236.567 C 135.318 236.938 136.836 238.333 137.072 238.611 C 137.649 239.292 138.227 239.973 138.804 240.654 C 141.041 243.291 143.277 245.928 145.514 248.565 C 147.431 246.846 149.349 245.127 151.266 243.408 C 148.814 241.549 146.527 239.716 144.477 237.402 Z"/><path style="fill: rgb(66, 66, 66);" d="M 158.247 115.244 C 158.054 115.228 157.332 116.097 157.166 116.252 C 156.518 116.856 155.869 117.461 155.221 118.065 C 154.548 118.692 153.875 119.319 153.202 119.947 C 152.587 120.52 152.637 120.473 153.184 121.107 C 153.455 121.421 153.727 121.735 153.998 122.049 C 156.461 124.899 158.924 127.75 161.387 130.6 C 162.688 129.981 163.534 128.853 164.305 127.682 C 164.937 126.722 166.254 125.467 165.886 124.228 C 165.667 123.49 164.985 122.848 164.504 122.282 C 163.874 121.541 163.24 120.804 162.603 120.069 C 161.44 118.727 160.311 117.332 159.07 116.062 C 158.928 115.914 158.43 115.259 158.247 115.244 Z"/><path style="fill: rgb(66, 66, 66);" d="M 163.468 329.8 C 164.168 328.723 165.407 327.589 164.733 326.233 C 163.945 324.645 162.299 323.229 161.136 321.897 C 159.861 320.436 158.579 318.984 157.28 317.545 C 156.1 318.761 154.779 319.822 153.548 320.985 C 153.048 321.456 152.283 322.033 151.962 322.658 C 151.717 323.138 151.958 323.183 152.298 323.576 C 152.619 323.949 152.939 324.321 153.26 324.693 C 155.638 327.453 158.015 330.214 160.393 332.973 C 161.8 332.317 162.651 331.058 163.468 329.8 Z"/><path style="fill: rgb(66, 66, 66);" d="M 161.734 264.205 C 162.115 263.806 162.465 263.378 162.79 262.933 C 163.425 262.066 164.355 260.906 164.635 259.861 C 164.957 258.658 163.547 257.575 162.853 256.775 C 160.92 254.546 158.984 252.319 157.05 250.091 C 155.146 251.848 153.241 253.607 151.337 255.365 C 153.3 257.634 155.263 259.903 157.226 262.171 C 157.758 262.787 158.29 263.402 158.822 264.016 C 159.012 264.235 159.905 265.558 160.158 265.559 C 160.562 265.561 161.476 264.475 161.734 264.205 Z"/><path style="fill: rgb(66, 66, 66);" d="M 152.787 188.023 C 153.065 188.682 153.925 189.342 154.402 189.896 C 156.71 192.572 159.018 195.249 161.326 197.925 C 162.663 196.968 163.703 195.704 164.586 194.329 C 165.414 193.04 166.343 191.934 165.254 190.535 C 163.064 187.723 160.551 185.117 158.189 182.449 C 156.878 183.664 155.568 184.879 154.257 186.093 C 153.917 186.408 153.577 186.723 153.237 187.038 C 153.092 187.172 152.948 187.306 152.803 187.44 C 152.424 187.614 152.419 187.808 152.787 188.023 Z"/><path style="fill: rgb(66, 66, 66);" d="M 142.888 316.583 C 142.716 316.417 142.445 316.062 142.212 315.985 C 142.15 315.964 142.053 315.829 141.985 315.837 C 141.813 315.857 141.371 316.531 141.245 316.671 C 140.256 317.782 139.001 318.917 138.277 320.226 C 137.595 321.46 138.765 322.447 139.511 323.361 C 141.596 325.92 143.726 328.442 145.835 330.981 C 147.264 329.748 148.694 328.516 150.123 327.283 C 150.463 326.99 150.764 326.868 150.697 326.494 C 150.659 326.283 150.361 325.976 150.24 325.796 C 149.897 325.282 149.544 324.776 149.184 324.274 C 147.804 322.347 146.343 320.473 144.802 318.671 C 144.189 317.955 143.565 317.24 142.888 316.583 Z"/><path style="fill: rgb(66, 66, 66);" d="M 141.8 181.862 C 140.883 182.743 139.805 183.924 139.172 185.031 C 138.374 186.427 140.004 187.854 140.815 188.867 C 141.925 190.255 143.116 191.584 144.278 192.928 C 144.827 193.563 145.376 194.198 145.925 194.833 C 146.237 195.194 146.533 195.761 146.914 195.664 C 147.239 195.581 147.725 194.972 147.984 194.751 C 149.252 193.668 150.519 192.586 151.787 191.503 C 149.589 188.652 147.39 185.802 145.192 182.951 C 144.946 182.632 143.788 180.708 143.424 180.659 C 143.002 180.6 142.108 181.566 141.8 181.862 Z"/><path style="fill: rgb(66, 66, 66);" d="M 143.027 249.32 C 142.937 249.204 142.41 248.376 142.274 248.344 C 141.887 248.253 140.796 249.357 140.565 249.582 C 139.692 250.431 138.608 251.609 138.019 252.678 C 137.171 254.217 139.053 255.7 139.934 256.77 C 141.071 258.153 142.194 259.548 143.359 260.904 C 143.844 261.469 144.346 262.019 144.846 262.57 C 144.955 262.69 145.444 263.416 145.624 263.43 C 145.844 263.447 146.648 262.554 146.835 262.394 C 148.096 261.315 149.358 260.236 150.619 259.157 C 148.381 256.257 146.142 253.357 143.904 250.456 C 143.612 250.078 143.32 249.699 143.027 249.32 Z"/><path style="fill: rgb(66, 66, 66);" d="M 143.374 113.616 C 142.655 113.574 142.048 114.518 141.639 114.971 C 141.09 115.58 140.548 116.195 140.034 116.834 C 139.656 117.304 139.059 117.898 139.017 118.544 C 138.971 119.244 139.574 119.849 139.975 120.349 C 142.224 123.154 144.555 125.892 146.85 128.66 C 148.087 127.413 149.543 126.42 150.811 125.209 C 151.028 125.002 151.41 124.699 151.56 124.437 C 151.833 123.963 151.599 123.871 151.274 123.414 C 150.856 122.826 150.409 122.258 149.972 121.684 C 148.797 120.141 147.62 118.599 146.444 117.056 C 145.94 116.395 145.436 115.734 144.932 115.073 C 144.548 114.57 144.105 113.658 143.374 113.616 Z"/><path style="fill: rgb(66, 66, 66);" d="M 144.987 250.402 C 146.494 252.126 148.001 253.85 149.508 255.574 C 151.722 253.537 153.941 251.506 156.153 249.467 C 156.737 248.929 157.729 248.214 157.829 247.354 C 157.919 246.579 157.215 245.878 156.754 245.342 C 156.132 244.619 155.342 243.483 154.272 243.494 C 153.209 243.505 152.058 244.457 151.254 245.057 C 149.048 246.701 147.231 248.805 144.987 250.402 Z"/><path style="fill: rgb(66, 66, 66);" d="M 147.187 181.98 C 147.075 182.079 146.269 182.673 146.247 182.812 C 146.221 182.974 146.929 183.598 147.081 183.773 C 148.278 185.153 149.475 186.533 150.672 187.914 C 153.12 185.663 155.83 183.517 158.074 181.062 C 158.691 180.386 159.204 179.663 158.786 178.745 C 158.345 177.773 157.178 176.538 156.244 176.054 C 155.168 175.496 153.797 176.356 152.916 176.973 C 151.53 177.943 150.292 179.229 149.025 180.35 C 148.412 180.893 147.8 181.437 147.187 181.98 Z"/><path style="fill: rgb(66, 66, 66);" d="M 149.802 323.024 C 151.953 321.051 154.101 319.074 156.257 317.106 C 156.86 316.556 157.908 315.832 158.117 314.977 C 158.302 314.223 157.674 313.544 157.23 313.009 C 156.639 312.296 155.836 311.089 154.858 310.895 C 153.837 310.693 152.792 311.743 152.062 312.299 C 149.742 314.065 147.548 315.989 145.29 317.832 C 146.795 319.563 148.299 321.292 149.802 323.024 Z"/><path style="fill: rgb(66, 66, 66);" d="M 150.79 120.665 C 152.878 118.748 154.964 116.828 157.054 114.913 C 157.675 114.345 158.859 113.595 159.12 112.74 C 159.334 112.04 158.704 111.369 158.319 110.853 C 157.733 110.067 156.982 108.879 155.971 108.601 C 154.951 108.321 153.993 109.2 153.248 109.764 C 150.85 111.578 148.605 113.581 146.287 115.493 C 147.787 117.217 149.288 118.941 150.79 120.665 Z"/><path style="fill: rgb(66, 66, 66);" d="M 150.148 127.247 C 149.502 127.746 148.856 128.244 148.21 128.743 C 147.729 129.114 146.324 129.935 146.362 130.417 C 146.404 130.961 147.235 131.995 147.504 132.48 C 147.928 133.246 148.352 134.013 148.776 134.779 C 151.657 132.52 154.538 130.261 157.419 128.002 C 156.832 127.347 156.246 126.692 155.66 126.037 C 155.415 125.763 154.394 124.27 154.049 124.238 C 153.642 124.2 152.473 125.454 152.091 125.749 C 151.443 126.247 150.795 126.747 150.148 127.247 Z"/><path style="fill: rgb(66, 66, 66);" d="M 147.769 337.153 C 150.658 334.885 153.546 332.617 156.435 330.348 C 155.827 329.68 155.219 329.012 154.61 328.343 C 154.363 328.071 153.367 326.628 153.019 326.594 C 152.616 326.554 151.427 327.835 151.045 328.132 C 150.398 328.636 149.752 329.139 149.105 329.643 C 148.466 330.14 147.828 330.638 147.189 331.136 C 146.71 331.509 145.347 332.308 145.384 332.794 C 145.425 333.339 146.248 334.373 146.516 334.861 C 146.933 335.626 147.351 336.389 147.769 337.153 Z"/><path style="fill: rgb(66, 66, 66);" d="M 145.172 265.471 C 145.349 266.145 145.959 266.924 146.289 267.533 C 146.681 268.256 147.072 268.977 147.464 269.701 C 150.356 267.434 153.248 265.166 156.14 262.899 C 155.554 262.25 154.969 261.601 154.383 260.951 C 154.115 260.654 153.847 260.358 153.58 260.061 C 153.475 259.945 152.892 259.164 152.748 259.139 C 152.446 259.087 151.05 260.456 150.788 260.658 C 150.089 261.201 149.39 261.743 148.691 262.286 C 147.996 262.825 147.3 263.364 146.605 263.904 C 146.284 264.153 145.963 264.402 145.642 264.651 C 145.481 264.776 145.32 264.9 145.16 265.025 C 144.922 265.122 144.927 265.27 145.172 265.471 Z"/><path style="fill: rgb(66, 66, 66);" d="M 147.447 199.86 C 147.84 200.589 148.233 201.319 148.626 202.048 C 151.52 199.777 154.415 197.506 157.309 195.235 C 156.71 194.571 156.11 193.907 155.51 193.243 C 155.247 192.952 154.985 192.661 154.722 192.37 C 154.619 192.256 154.054 191.498 153.912 191.473 C 153.615 191.42 152.22 192.789 151.962 192.989 C 151.265 193.532 150.567 194.074 149.869 194.617 C 149.173 195.158 148.478 195.699 147.782 196.24 C 147.46 196.49 147.138 196.741 146.817 196.991 C 146.33 197.37 146.207 197.283 146.342 197.81 C 146.515 198.479 147.122 199.256 147.447 199.86 Z"/></g></svg>