<?xml version="1.0" encoding="UTF-8" standalone="no" ?>
<!DOCTYPE svg PUBLIC "-//W3C//DTD SVG 1.1//EN" "http://www.w3.org/Graphics/SVG/1.1/DTD/svg11.dtd">
<svg xmlns="http://www.w3.org/2000/svg" xmlns:xlink="http://www.w3.org/1999/xlink" version="1.1" width="1080" height="1080" viewBox="0 0 1080 1080" xml:space="preserve">
<desc>Created with Fabric.js 5.2.4</desc>
<defs>
</defs>
<g transform="matrix(1 0 0 1 540 540)" id="9415b41c-a32f-40f1-b778-564bc5d79b8a"  >
<rect style="stroke: none; stroke-width: 1; stroke-dasharray: none; stroke-linecap: butt; stroke-dashoffset: 0; stroke-linejoin: miter; stroke-miterlimit: 4; fill: rgb(255,255,255); fill-rule: nonzero; opacity: 1; visibility: hidden;" vector-effect="non-scaling-stroke"  x="-540" y="-540" rx="0" ry="0" width="1080" height="1080" />
</g>
<g transform="matrix(1 0 0 1 540 540)" id="2e997670-a0c3-4a7b-9671-3c7850553ae7"  >
</g>
<g transform="matrix(1 0 0 1 540 540)"  >
<g style="" vector-effect="non-scaling-stroke"   >
		<g transform="matrix(1 0 0 1 0 0)" id="path911"  >
<path style="stroke: none; stroke-width: 1.01223278; stroke-dasharray: none; stroke-linecap: butt; stroke-dashoffset: 0; stroke-linejoin: miter; stroke-miterlimit: 4; fill: rgb(255,255,255); fill-rule: nonzero; opacity: 1;" vector-effect="non-scaling-stroke"  transform=" translate(-402.93, -325.64)" d="M 386.56883 112.59547 C 358.18002 114.87406 329.36975 116.88178 305.16331 124.83205000000001 C 297.73787000000004 127.35331000000001 292.91589000000005 131.14278000000002 292.85224000000005 134.51509000000001 C 292.78794000000005 137.91998 294.43505000000005 139.87529 307.29755000000006 149.26868000000002 C 317.58013000000005 156.73801000000003 327.7672600000001 163.99185000000003 338.0498400000001 171.46117 C 335.93505000000005 172.0574 348.43851000000006 168.53113000000002 346.3237200000001 169.12736 C 368.3084500000001 162.92101000000002 390.80725000000007 159.49938 412.3786100000001 158.85274 C 415.3527300000001 158.76364 418.3009200000001 158.72760000000002 421.2190800000001 158.74374 C 422.6768600000001 158.75174 424.13049000000007 158.77304 425.5795500000001 158.80734 C 447.9042200000001 159.33622 468.8780900000001 162.96705 486.7080300000001 169.68767000000003 C 491.13503000000014 171.35637000000003 495.1356700000001 172.75154000000003 495.60493000000014 172.79325000000003 C 496.3453900000001 172.85915000000003 502.8472600000001 168.03212000000002 510.70050000000015 161.94723000000002 C 518.2298200000001 156.11334000000002 528.1024400000001 148.26679000000001 533.7586400000001 143.51644000000002 C 536.5428300000001 141.00374000000002 541.2589100000001 138.20775 541.4505500000001 133.55895 C 541.5410500000002 130.44758000000002 539.6064400000001 128.26452 534.2323200000002 126.34665000000001 C 530.4304300000002 124.99071 524.9162000000002 123.76912000000002 517.1764500000002 122.43975000000002 C 485.20745000000016 116.54683000000001 455.94706000000014 113.59966000000001 425.86995000000013 112.69406000000002 C 421.39421000000016 112.55931000000002 416.89466000000016 112.46977000000003 412.36222000000015 112.42321000000003 C 403.9186300000001 112.33641000000003 395.3391300000001 112.39811000000003 386.56883000000016 112.59553000000002 z M 418.38005 123.30771 C 420.82804999999996 123.28601 423.31284 123.34031 425.7895 123.44044 C 429.51192 123.59097 433.19030999999995 123.84366999999999 436.69295 124.09358999999999 C 436.71935 123.58182 436.17856 134.00994 436.2049 133.49817 C 435.93218 138.70046 435.4063 143.21251999999998 435.04415 143.47224 C 434.75586 143.67904 430.83948 143.89544 425.65765 144.01515 C 425.65765 144.01515 425.65765 144.01515 425.65765 144.01515 C 424.36739 144.04505 422.99516 144.06895 421.58431 144.08465 C 421.58405 144.08465 421.29647 144.08665000000002 421.29622 144.08665000000002 C 417.1408 144.13005 414.37344 144.15395 412.37648 144.12175000000002 C 408.55661000000003 144.06035000000003 408.04794000000004 143.79148 407.82097 143.1689 C 407.10393999999997 136.44908 407.06232 131.20888000000002 406.8024 123.93204 C 408.62154999999996 123.69612000000001 410.50422 123.54441 412.36881999999997 123.44973 C 414.43874999999997 123.34462 416.47835999999995 123.31021 418.38005 123.30754 z M 392.88901999999996 124.5735 C 393.37417999999997 124.97737 394.49432999999993 129.81356 395.40412 134.67442 C 396.31233 139.52693 397.00627 144.38185 396.64268999999996 144.62211 C 396.27450999999996 144.8654 390.7075 145.57727 384.26872 146.19974 C 377.82759999999996 146.82242 372.03610999999995 147.31986999999998 371.39122 147.3105 C 370.54846999999995 147.2985 369.23181999999997 144.59329 366.68629999999996 137.74756 C 364.73914999999994 132.51094 363.43742999999995 128.08051999999998 363.79029999999995 127.85264 C 364.34319999999997 127.49561999999999 371.57869999999997 125.8947 378.63915999999995 125.09939999999999 C 386.57439999999997 124.29851999999998 387.04807999999997 124.85571999999999 392.88901999999996 124.5735 z M 454.39486999999997 126.19807 C 455.43854 126.19805 461.94660999999996 127.08271 468.25251999999995 128.00746 C 474.56372999999996 128.93298000000001 480.69377999999995 129.90278 481.00669999999997 130.10425 C 481.34268 130.32053000000002 479.13329999999996 134.83607 476.082 140.19476 C 471.40885 148.40191000000002 470.28965 149.95904000000002 468.97634999999997 149.90986 C 468.15288 149.87896 462.79594999999995 149.02369000000002 457.563 148.13063 C 452.3336 147.23818 447.24280999999996 146.31113 446.97141 146.15628999999998 C 446.79814 146.05748999999997 448.1417 141.48001 449.94975999999997 136.03739 C 452.41391999999996 128.6198 453.52027 126.19805 454.39486999999997 126.19806999999999 z M 346.45662999999996 130.55427 C 347.34198 131.22101 350.05150999999995 135.98822 352.44187999999997 140.68963 C 354.8293 145.38526 356.88971999999995 149.99626999999998 356.46783999999997 150.23722999999998 C 356.28151999999994 150.34359999999998 351.8307 151.73217 346.57941999999997 153.32209999999998 C 341.32728 154.91231 336.71376999999995 156.21039 336.32538999999997 156.20636999999996 C 335.98335999999995 156.20236999999997 331.09684999999996 152.21203999999997 326.24370999999996 148.11306999999996 C 321.39198999999996 144.01529999999997 316.57338999999996 139.80915999999996 316.39622999999995 139.37687999999997 C 326.12814999999995 135.25026999999997 342.51117999999997 130.49548 346.45662999999996 130.55426999999997 z M 259.16002 136.53377 C 260.62706999999995 146.61559 261.38003 157.68598 261.55228 165.95563 C 261.63468 170.24233 261.71148999999997 174.47947000000002 261.78431 178.75807 C 261.037 178.4107 270.305 182.71475 269.55769 182.36739 C 275.89149999999995 185.30392 289.64558999999997 192.2613 306.1825 200.73564 C 324.12929 208.01306 343.38321 218.44494999999998 361.91428 228.85120999999998 C 380.49261 239.28400999999997 397.85086 249.39853 412.35201 256.27925999999997 C 414.99527 257.534 417.53073 258.67436 419.94441 259.68102999999996 C 419.16595 260.16002999999995 426.1028 255.89341999999996 425.32432 256.37242999999995 C 449.90692 241.26696999999996 475.24175 225.90321999999995 501.29568 212.74914999999996 C 501.34818 212.72274999999996 509.10247 208.82953999999995 509.15492 208.80322999999996 C 509.18702 208.66056999999995 510.62654 202.29378999999994 510.65902 202.15015999999997 C 513.07552 191.46390999999997 516.07691 185.62042999999997 521.39037 183.59725999999998 C 525.12564 181.8875 528.88257 183.33718999999996 532.4089 185.10868999999997 C 537.35145 188.03997999999996 540.58142 192.17544999999996 544.95217 196.45110999999997 C 547.30323 186.21370999999996 548.56631 176.16239999999996 556.9278400000001 172.94353999999998 C 559.46806 172.01602999999997 559.5306300000001 172.29109 563.09076 171.96809 C 568.24998 172.56859 575.29501 174.50185 576.46222 176.77867999999998 C 578.28342 164.25875 580.3429 151.36670999999998 582.73525 138.29433999999998 C 579.476 139.53851999999998 571.0795899999999 142.79729999999998 561.18909 147.15294999999998 C 551.3374 151.49150999999998 540.77782 156.58458 533.19881 161.16342999999998 C 511.37194999999997 174.34511999999998 483.29553 192.60298999999998 447.36184 216.65389 C 440.25424999999996 221.41119999999998 432.55071 226.55094 425.35724999999996 231.33364 C 425.38115 231.31764 418.10999999999996 236.1459 418.13392 236.12999 C 416.21443 234.8078 414.29016 233.48807 412.36204 232.17122 C 376.72256999999996 207.83886 341.69822999999997 185.76642 306.99586999999997 164.43612000000002 C 307.1916 164.55701000000002 303.47918999999996 162.26707000000002 299.74751 159.98732 C 296.01581999999996 157.70756 292.26398 155.43877 292.46173 155.55857 C 276.75131 146.04067 260.16184 136.55397 259.16002 136.53377 C 259.16002 136.53377 259.16002 136.53377 259.16002 136.53377 z M 492.89597 132.38175 C 493.0392 132.25795000000002 499.26131999999996 133.75616000000002 506.71815 135.70676 C 517.2585799999999 138.46395 520.1720799999999 139.43710000000002 519.8172999999999 140.10361 C 519.5677999999999 140.57223 515.8526099999999 144.75130000000001 511.5612299999999 149.40325 C 507.0112999999999 154.33554 503.2721399999999 157.85563000000002 502.5920899999999 157.82870000000003 C 501.4690099999999 157.78470000000002 482.51032999999995 152.86971000000003 481.80002999999994 152.43565000000004 C 481.65916999999996 152.34965000000003 484.2604999999999 147.46088000000003 486.97979999999995 142.54566000000003 C 489.70285999999993 137.62365000000003 492.53270999999995 132.69566000000003 492.89597 132.38175000000004 z M 718.9276 158.56995 C 718.915 158.55165 718.8786 158.55115 718.81918 158.57083 C 707.8811599999999 162.19352 695.5876999999999 166.34782 679.5833399999999 171.69852 C 662.2664499999998 177.49075 650.9886599999999 181.2326 634.2299699999999 186.78694000000002 C 613.9717499999998 193.50555000000003 597.4417499999998 198.96617 590.8620599999998 201.38188000000002 C 590.5607399999998 201.49247000000003 584.8468299999998 203.58606000000003 584.5455599999998 203.69666000000004 C 585.3252099999997 207.89280000000002 585.4044099999998 211.82699000000002 586.5654399999997 215.87384000000003 C 586.6928699999997 215.86984000000004 590.1010399999998 214.43007000000003 594.1425099999998 212.66417000000004 C 607.7018399999998 206.73934000000003 621.3118799999997 201.22339000000005 633.8574599999998 196.50755000000004 C 651.6904599999998 189.80883000000003 667.8083899999998 184.56770000000003 679.1085499999998 181.91449000000003 C 684.1827699999998 180.60139000000004 689.4035399999998 180.05340000000004 694.2617099999998 179.79453000000004 C 700.7218399999998 172.95346000000004 713.9919299999998 166.00636000000003 718.9279399999998 158.56994000000003 z M 255.82709999999997 162.70899 C 255.78819999999996 161.96094 237.91977999999997 169.35715 230.49713999999997 176.07263 C 232.94805999999997 177.67056 238.63653999999997 181.10874 238.63653999999997 181.10874 C 245.21560999999997 176.61662 256.83628 171.33355 256.83628 171.33355 C 256.59409999999997 168.78033 256.09232 162.85439 255.93012 162.71913 C 255.91451999999998 162.70603 255.87921999999998 162.70283 255.82706 162.70883 C 255.82706 162.70883 255.82706 162.70883 255.82706 162.70884 z M 201.74680999999998 168.67204 C 201.71451 168.67804 201.69540999999998 168.68994 201.68950999999998 168.70874 C 201.57423999999997 169.07553000000001 202.99175 176.93759 204.70227 186.04011 C 206.54888 195.84973 208.70688 206.82019 210.68762 215.92015 C 210.93059000000002 215.96745 216.41885000000002 217.03325 216.66182 217.08061 C 238.63121 221.33636 271.38462 232.47664 304.99869 246.65772 C 311.9449 249.58806 318.95047 252.65458 325.92846000000003 255.82643000000002 C 339.15286000000003 261.83757 352.31637 268.21478 364.31697 274.37245 C 381.45818 281.9982 396.79624 292.97636 412.33422 302.88684 C 414.02384 303.96494 415.71833000000004 305.03226 417.42113 306.08393 C 417.44333 306.08993 417.5966 306.00853 417.86274000000003 305.85288 C 418.91859000000005 305.23575000000005 421.75065 303.44413000000003 425.29344000000003 301.1494 C 425.29344000000003 301.1494 425.29344000000003 301.1494 425.29344000000003 301.1494 C 426.26321 300.5213 427.28623000000005 299.85552 428.34053000000006 299.1659 C 446.0912000000001 287.79371000000003 460.66715000000005 278.99244000000004 476.63353000000006 269.83092 C 494.55171000000007 259.26472 512.7112400000001 248.65934 530.8211500000001 238.2924 C 530.8314500000001 238.2471 530.8411500000001 238.2008 530.8517500000002 238.15388 C 531.0393900000001 233.61740999999998 531.6454900000001 228.89037 530.1319000000002 224.39826 C 529.7000300000002 223.18771999999998 529.5801200000002 223.17839 525.5423500000002 223.97851 C 516.8053700000002 225.70983 499.92935000000017 232.1394 481.44406000000015 240.27151 C 463.32144000000017 247.98463 440.37606000000017 260.12013 425.3138000000001 268.10719 C 425.3138000000001 268.10719 425.3138000000001 268.1072 425.3138000000001 268.1072 C 422.72858000000014 269.47819 420.40349000000015 270.71218 418.38327000000015 271.77642 C 416.46972000000017 270.77966 414.44923000000017 269.71272 412.34715000000017 268.59272 C 394.576 259.12795 372.20974 246.56514 358.83738 240.23057 C 344.59596 233.41466 326.11972 224.8397 305.81271 215.452 C 283.39973 205.0899 253.50257 191.36181 235.5903 183.23564 C 216.33317 174.49933 202.72947 168.49827 201.74706 168.672 Z M 588.02712 169.61360000000002 C 586.8206 174.13647000000003 586.70488 176.87220000000002 586.54354 181.26824000000002 C 589.51679 183.35890000000003 592.48029 185.43781 595.45284 187.51742000000002 C 598.4251 189.59687000000002 601.388 191.66463000000002 604.3597900000001 193.73195 C 606.2947100000001 192.92428 615.3638700000001 189.58468000000002 617.3562000000001 188.93888 C 606.76229 181.14293 600.1806600000001 175.11332000000002 588.02718 169.61360000000002 C 588.02718 169.61360000000002 588.0271200000001 169.61360000000002 588.0271200000001 169.61360000000002 z M 421.07805999999994 164.27121000000002 C 418.19706999999994 164.26091000000002 415.29468999999995 164.30791000000002 412.3787899999999 164.41229 C 401.7493999999999 164.7929 391.0077999999999 165.93628 380.53604999999993 167.85198000000003 C 364.94548999999995 170.70411000000001 346.2322899999999 176.00352000000004 347.8378799999999 177.13465000000002 C 348.0210899999999 177.26371000000003 364.6967899999999 188.46672 383.99972999999994 201.29468000000003 C 393.7382799999999 206.92078000000004 402.8385799999999 214.18205000000003 412.36668999999995 220.22368000000003 C 414.8580299999999 221.80397000000002 417.37772999999993 223.30165000000002 419.94732999999997 224.66985000000003 C 420.15999 224.67002000000002 422.17028 223.39595000000003 425.37535999999994 221.26143000000002 C 431.87875999999994 216.93053000000003 443.07820999999996 209.20731 454.3994799999999 201.27196 C 471.25195999999994 189.45963 488.00533999999993 177.45099000000002 488.0188099999999 177.00135 C 488.03500999999994 176.46505 478.7225299999999 173.18205 470.3311799999999 170.75372000000002 C 456.9436799999999 166.87957 441.5558899999999 164.72082 425.5537099999999 164.33314000000001 C 424.0655699999999 164.29714 422.5733399999999 164.27654 421.07805999999994 164.27114 z M 563.41424 176.58994 C 558.27652 176.26653000000002 554.32423 177.82128 551.7319 184.13181 C 548.43824 194.68451 549.51093 200.2886 550.81966 211.17516 C 553.70908 210.47844 556.60037 209.78712000000002 559.4949 209.10097000000002 C 559.4949 209.10097000000002 558.4179300000001 202.47571000000002 562.08176 200.53945000000002 C 563.41094 200.87877 565.15729 204.93550000000002 566.6038 209.65742 C 568.04783 214.37138 569.2057 219.78895 569.28942 222.94764 C 568.9888599999999 227.85618 567.8136 234.83951000000002 564.7502199999999 227.71025 C 560.5491399999999 229.57712 557.2478499999999 231.86268 552.9356599999999 233.81623 C 557.2775099999999 244.23967 567.6062099999999 246.09 573.9882199999998 242.63611 C 577.5760299999998 239.39228 581.1643799999998 234.33028000000002 581.4818499999999 221.07815 C 580.5889399999999 213.292 578.5008399999999 203.63636 575.4731999999999 195.245 C 572.4372099999999 186.8304 568.3984399999999 179.5153 563.41424 176.58994 z M 526.52649 186.50797 C 526.25357 186.48587 525.98182 186.47627 525.7101399999999 186.47867 C 522.62164 186.50507 519.0242499999999 190.05649 517.0987499999999 194.97941 C 515.5320799999998 198.98502 511.29793999999987 215.8313 512.8502999999998 222.99346 C 517.2080199999998 221.92331 521.5683999999999 220.86441 525.9358499999998 219.81621 C 526.4366699999998 217.67163000000002 525.0080799999998 213.91739 527.9717999999998 212.06751 C 530.4989299999999 213.09855 532.9909199999998 220.08158 534.0752299999998 227.85645 C 535.1621299999998 235.64989 534.8428899999998 244.24600999999998 531.6659599999998 248.94429 C 531.2313999999998 249.41701 532.0798399999998 249.17381 531.6659599999998 248.94429 C 529.7538899999998 250.3193 526.2253199999998 246.02797999999999 526.2253199999998 246.02797999999999 C 526.2253199999998 246.02797999999999 518.5151099999998 250.09598999999997 517.9167199999998 252.11819999999997 C 523.4910299999998 257.92481 528.9463899999998 260.73276 536.1235499999998 260.22832999999997 C 548.6408599999997 253.78247999999996 548.9226199999998 239.4251 549.2455599999998 228.99334999999996 C 549.5135099999999 219.20183999999998 548.5384099999999 214.33963999999997 544.5202099999998 205.47505999999996 C 540.8757599999998 197.43480999999997 536.6361299999998 191.66441999999995 532.2904599999998 188.71338999999995 C 530.3736799999998 187.41377999999995 528.4377599999998 186.66282999999996 526.5265999999998 186.50801999999996 C 526.5265999999998 186.50801999999996 526.5264899999999 186.50801999999996 526.5264899999999 186.50801999999996 z M 202.11203999999998 196.78204 C 187.45860999999996 205.75244999999998 174.28911 217.87628 163.22979999999998 230.60823 C 152.13469999999998 243.38137999999998 142.83463999999998 257.14393 136.04341999999997 269.95878 C 139.77497999999997 272.62405 144.02883999999997 273.11465 147.62996999999996 273.68959 C 155.27888999999996 261.47589 164.62988999999996 248.39045000000002 174.31886999999995 236.89804 C 184.03259999999995 225.37625 194.43254999999994 215.03063 204.53476999999995 208.48963 C 203.72505999999996 203.88591 203.38048999999995 202.45738 202.11204999999995 196.78203000000002 C 202.11204999999995 196.78203000000002 202.11203999999995 196.78204000000002 202.11203999999995 196.78204000000002 z M 631.46712 201.65072999999998 C 627.95737 202.6907 624.88426 204.00983999999997 621.62626 205.29175999999998 C 627.33412 209.18257999999997 632.57205 215.13460999999998 636.71228 219.92740999999998 C 642.7348 219.25274 648.91559 218.70333999999997 648.91559 218.70333999999997 C 646.5087299999999 216.33732999999998 643.37033 213.10722999999996 639.47451 209.17269999999996 C 635.92289 205.58578999999997 632.59779 202.29110999999997 631.46712 201.65072999999995 z M 562.88021 211.62433 C 558.8789800000001 212.40402999999998 555.3075600000001 213.66679 551.5518400000001 214.83083 C 552.3223200000001 220.29300999999998 552.43172 225.03095 552.35094 229.95574 C 558.13647 228.21174 560.0491400000001 226.43293 564.91755 224.00321 C 564.37348 219.66884 563.6400600000001 216.23854 562.9975900000001 211.66541999999998 C 562.9981200000001 211.63881999999998 562.95649 211.62552 562.8791600000001 211.62431999999998 C 562.8791600000001 211.62431999999998 562.8791600000001 211.62436 562.8791600000001 211.62436 z M 671.4654300000001 220.62428 C 656.1298800000001 221.71496 640.80915 222.42107 625.9940700000001 224.22276 C 614.1104700000001 225.68170999999998 599.54682 228.17037 591.5296900000001 230.14840999999998 C 591.9322900000001 230.04910999999998 584.85054 231.79255999999998 585.25314 231.69322 C 581.3351 244.65162 573.7927000000001 249.57516999999999 566.1063700000001 249.38844 C 560.43982 248.85986 558.0700800000001 247.04437000000001 553.07577 244.24591 C 547.50926 261.08443 539.4706100000001 273.44871 518.74044 261.33125 C 516.33708 259.27006 517.82011 258.78645 501.87793000000005 267.28644 C 497.47387000000003 269.63458 493.22448 271.94283 489.14900000000006 274.19767 C 458.25701000000004 291.31518 437.39714000000004 305.43438000000003 434.16211000000004 311.96618 C 434.16211000000004 311.96625 434.14771 311.99458 434.14771 311.99458 C 432.66734 314.98228 433.23881 315.39824999999996 438.74915000000004 315.38029 C 444.57944000000003 315.36129 465.64511000000005 316.62776 476.75895 317.65309 C 494.46368 319.28645 512.10479 321.74474000000004 529.43417 324.97592000000003 C 564.82836 331.5971 599.76403 341.47753 631.43375 354.40489 C 649.26155 361.89086000000003 664.69906 369.44601 679.8575900000001 377.78579 C 681.7128200000001 365.71761000000004 682.22892 353.21208 681.49049 341.08314 C 680.809 330.9825 679.02831 320.9753 676.26516 311.30888 C 671.81798 297.19845 664.7678900000001 281.64455 657.4854300000001 270.62127 C 653.40336 264.52724 649.16727 259.49482 644.8704100000001 254.24269999999999 C 640.5825500000001 254.91164999999998 636.0595900000001 255.64293999999998 632.1593500000001 256.38061999999996 C 601.2060600000001 263.02916 569.9767100000001 274.03231999999997 548.4855400000001 296.00118999999995 C 543.4350700000001 301.41535999999996 538.4736600000001 308.04806999999994 538.4617900000002 309.40363999999994 C 539.1125400000002 310.92607999999996 550.0374400000002 311.94512999999995 553.2637100000002 312.04796999999996 C 579.9289700000002 311.18391999999994 599.4791000000001 315.36907999999994 622.3704200000002 326.74060999999995 C 623.2044100000002 326.9425299999999 627.3559200000002 322.18956 630.1180900000002 317.86911999999995 C 636.6677400000002 305.37344999999993 638.1903300000001 293.11818999999997 639.2970300000002 279.57566999999995 C 620.4352500000002 289.62570999999997 599.0514700000002 297.06784999999996 580.1060900000002 301.33413999999993 C 570.0501500000003 303.56335999999993 555.8014600000002 305.7948599999999 555.0552400000003 305.27986999999996 C 561.4270700000003 292.3035 594.1277100000002 277.24296999999996 602.7056600000003 273.95442999999995 C 608.0907700000004 278.23096999999996 614.2901900000003 282.2911199999999 618.6772000000003 285.58590999999996 C 626.4697600000003 281.88192 642.0350000000003 274.58877999999993 642.0350000000003 274.58877999999993 C 644.1085600000004 287.6181899999999 641.4362900000003 299.12663999999995 639.3986700000003 310.59182999999996 C 642.5210800000002 315.48499999999996 645.6580500000002 320.51646999999997 648.1172000000003 325.63608999999997 C 651.2616600000002 332.24535999999995 656.5732800000003 346.76180999999997 657.2252000000002 350.563 C 650.5891900000001 349.33950999999996 637.0573000000002 344.56079 631.4292800000002 342.37772 C 623.4285300000001 339.28346 615.5660700000002 336.61587000000003 604.8417600000001 333.21783 C 582.2495200000002 326.05937 556.5398700000002 319.63496 529.5060500000002 314.15996 C 518.3958700000002 312.25183 508.7869000000002 309.42310000000003 497.3906400000002 307.62709 C 497.39864000000017 306.81471 506.5136400000002 296.14840000000004 511.01056000000017 291.69303 C 516.8027900000002 285.95434 523.1399800000002 280.53918000000004 530.0029200000001 275.45598 C 563.4038900000002 253.5173 600.0988900000001 239.30678 631.8450500000001 231.67956 C 645.9033900000002 228.81060000000002 658.2585600000001 226.32286000000002 671.0419900000002 224.87408000000002 C 671.4314100000001 223.53887000000003 671.9646400000001 221.95407000000003 671.8206000000001 220.65430000000003 C 671.7944000000001 220.63570000000004 671.6726900000001 220.62660000000002 671.4654200000001 220.62420000000003 C 671.4654200000001 220.62421000000003 671.4654200000001 220.62422000000004 671.4654200000001 220.62423000000004 z M 658.5590800000001 230.77446 C 656.1772500000001 231.14996 653.8895700000002 231.39478 651.5974500000001 232.35511 C 651.5974500000001 232.48436999999998 653.6137200000001 235.54667 656.0942800000001 239.14995 C 662.0037200000002 247.73373999999998 669.6194500000001 260.38032 674.7127400000002 269.9384 C 676.1889200000002 272.67594 677.6190000000001 275.63358 678.8402200000002 278.13678 C 681.4734900000002 277.45168 689.9182800000002 277.56799 689.7559800000001 275.05147999999997 C 687.1248800000002 266.94530999999995 681.2287900000001 258.53293999999994 676.8410700000002 252.06049999999996 C 674.0532700000002 247.97181999999995 671.0624200000002 243.83598999999995 668.1663100000002 240.13459999999995 C 662.1945500000002 232.50227999999996 660.9564400000002 230.73022999999995 658.5590800000002 230.77445999999995 z M 210.90714000000008 229.93839 C 193.38807000000008 245.67863 178.68920000000008 265.95372 171.56472000000008 286.95209 C 169.88205000000008 295.75549 168.7510900000001 304.69094 171.36903000000007 312.54393 C 174.25199000000006 321.09159999999997 183.37171000000006 332.78254 187.14330000000007 332.86608 C 209.66817000000006 329.16343 231.89861000000008 320.3926 250.46978000000007 310.61825 C 262.31568000000004 303.22729 274.9166000000001 296.35935 285.7792400000001 287.28262 C 290.2314400000001 283.48638 290.3771300000001 283.25592 289.36039000000005 281.84775 C 288.03096000000005 280.00642 280.66685000000007 275.98225 274.09278000000006 273.49015 C 274.0335800000001 273.46785000000006 273.97405000000003 273.44625 273.9150200000001 273.42405 C 262.5802500000001 269.17188000000004 245.30360000000007 265.67913000000004 221.8133300000001 262.74946 C 206.8104000000001 260.87832 208.0500800000001 260.70773 208.4524000000001 264.23869 C 208.6959600000001 266.37624 209.6970700000001 269.07296 211.4247500000001 272.26334 C 214.8479900000001 278.59322000000003 221.1256900000001 286.87261 230.0518700000001 296.60831 C 237.1912300000001 304.39515 237.43148000000008 304.69088 236.3008900000001 306.04246 C 225.4379300000001 312.41088 214.96866000000009 317.27365000000003 203.0685300000001 318.09285 C 202.7424600000001 308.89485 206.3884500000001 299.56047 209.0878200000001 292.51306999999997 C 209.3351000000001 291.87089 212.2569600000001 284.30008 212.5042600000001 283.65788 C 208.3682800000001 277.43154999999996 202.8223900000001 263.22733999999997 205.5250900000001 257.52295999999996 C 205.8452000000001 257.30817999999994 212.23083000000008 258.04603 219.71677000000008 259.14361999999994 C 224.2535200000001 259.80880999999994 228.79163000000008 260.46970999999996 233.32826000000009 261.12435999999997 C 238.0910100000001 257.22558999999995 246.07617000000008 250.65568999999996 251.56552000000008 250.46257999999997 C 252.79355000000007 250.48547999999997 257.4066900000001 251.19862999999998 261.7986600000001 252.03906999999998 C 275.2045100000001 254.60437 289.6582100000001 259.20137 304.5304000000001 265.50728 C 310.6130700000001 268.08626999999996 316.7704300000001 270.95151 322.9600600000001 274.07887 C 333.2247500000001 279.27289 343.5829200000001 285.19553 353.8345500000001 291.74237999999997 C 356.8555700000001 293.67164999999994 359.8772300000001 295.59695999999997 362.9004700000001 297.51869 C 356.5424500000001 297.60509 350.1796500000001 297.68435999999997 343.8131500000001 297.75773 C 327.8888700000001 297.94057 320.22419000000014 298.20006 303.8701900000001 299.65612999999996 C 292.0042800000001 300.74740999999995 283.9336400000001 301.55182999999994 273.0665200000001 302.60797999999994 C 269.1106000000001 305.4233499999999 264.71400000000006 308.57186999999993 260.9710100000001 310.79993999999994 C 255.7867600000001 313.86355999999995 250.5611200000001 318.02189999999996 241.9051900000001 321.6354999999999 C 231.10243000000008 326.7921599999999 205.52129000000008 335.9030699999999 186.17217000000008 338.03968999999995 C 183.43946000000008 338.33371999999997 183.17768000000007 338.2252 180.5032500000001 335.63788999999997 C 175.8787800000001 330.91112999999996 172.92469000000008 326.03801999999996 168.74792000000008 320.96304 C 166.13725000000008 321.39646 164.21774000000008 321.75181 161.43346000000008 322.24865 C 162.06616000000008 322.8155 155.99102000000008 336.6828 150.1785700000001 350.17551 C 144.3627900000001 363.67595 138.7837100000001 376.88644 140.1649400000001 376.44856 C 157.3823000000001 367.20817 175.6738300000001 359.14261 194.74981000000008 352.10329 C 228.17156000000008 339.82372000000004 264.8972500000001 330.65864 303.6422300000001 324.38598 C 336.4827500000001 319.83631 370.3603000000001 315.38795000000005 403.7000500000001 315.42401 C 403.6980500000001 315.42201 402.32758000000007 313.92823 402.32533000000006 313.92581 C 387.8450000000001 301.18989 371.83889000000005 288.46785 355.49143000000004 278.84324000000004 C 352.81622000000004 277.29460000000006 350.08954000000006 275.77049000000005 347.31498000000005 274.27317000000005 C 334.12508 267.1657200000001 319.84475000000003 260.64382000000006 304.79071000000005 254.83528000000004 C 282.89670000000007 246.38755000000003 259.31090000000006 239.45198000000005 235.03143000000006 234.38005000000004 C 228.48283000000006 233.01208000000003 220.21968000000007 231.41605000000004 216.95713000000006 230.89937000000003 C 217.69188000000005 231.01574000000002 210.17239000000006 229.82201000000003 210.90714000000006 229.93837000000002 C 210.90714000000006 229.93837000000002 210.90714000000006 229.93835 210.90714000000006 229.93835 z M 88.640685 270.71168 C 79.93558200000001 273.54092 72.06819200000001 286.01103 66.64939100000001 305.70648 C 62.23942000000001 324.85245 60.57911000000001 344.19219 62.885799000000006 362.8919 C 65.18023000000001 381.49218 71.37011100000001 399.05962 82.071381 414.24979 C 103.06960000000001 414.24079 124.55098000000001 414.47452000000004 144.16811 414.79342 C 138.48170000000002 392.17694 133.15751 368.84216000000004 131.4883 346.57602 C 129.82362 324.37006 131.85571000000002 303.70284000000004 140.12169 286.78006000000005 C 142.26036 282.78524000000004 144.06767 279.40871000000004 144.35332 278.86219000000006 C 144.70029 278.1983000000001 142.40174 277.6041900000001 132.77519 275.76304000000005 C 121.73335 273.73823000000004 98.69933 267.92929000000004 88.64068500000002 270.71168000000006 z M 694.4866599999999 279.75455 C 687.0750099999999 281.6297 680.9072799999999 283.34775 680.9038599999999 283.74401 C 684.21724 291.33541 687.4867899999999 299.97838 689.5981299999999 307.175 C 693.9145199999998 325.79756000000003 695.5372499999999 347.18205 692.4334199999998 364.67535 C 690.5916599999998 383.22819 680.5952399999999 398.73136 675.7990499999999 414.70892 C 694.6479399999998 415.68850999999995 714.2076499999998 416.72891 730.0810999999999 416.54168 C 730.3552399999999 416.59378 732.7036299999999 412.76126999999997 735.2541599999998 408.0358 C 741.6381699999998 396.20781 746.0750799999998 384.52299 748.8564899999999 372.83448 C 753.7959199999999 349.6233 753.8147499999999 326.57642 746.7123899999999 305.14419999999996 C 745.28311 300.83379999999994 743.5783099999999 296.64898999999997 741.5840699999999 292.61415999999997 C 738.3132599999999 285.99661 732.8702799999999 278.19005999999996 729.7122199999999 275.60407 C 722.9055699999999 270.91943999999995 701.9798099999999 277.85796 694.4866599999999 279.75455 z M 65.97079299999996 276.43125 C 61.19443299999996 276.50514999999996 56.36915699999996 276.83896 51.90442499999996 277.10791 C 45.66904999999996 285.98875 40.04452599999996 296.33408000000003 36.62381099999996 305.11736 C 30.25632799999996 321.64865000000003 27.27541199999996 339.80213000000003 28.79576099999996 354.68575000000004 C 30.32957799999996 369.70136 35.85544699999996 384.72434000000004 44.53307599999996 396.78026000000006 C 50.47789199999996 405.31450000000007 66.31951299999996 405.9798200000001 66.66708099999995 406.55054000000007 C 65.21616999999995 404.2249500000001 63.068832999999955 399.97062000000005 61.003613999999956 395.3731900000001 C 48.598264999999955 364.5836900000001 45.80287099999995 334.85476000000006 54.73409299999996 305.41030000000006 C 56.37021799999996 295.1360000000001 64.12664899999996 281.82918000000006 67.46847599999995 276.51446000000004 C 66.84924899999996 276.42786000000007 66.47046499999995 276.43136000000004 65.97079299999996 276.43126000000007 z M 742.08534 279.70345 C 750.51997 292.61438999999996 755.7595699999999 305.74298 758.28886 319.24111999999997 C 759.465 331.90977999999996 760.52266 343.38120999999995 758.85028 356.23567999999995 C 757.13932 368.76539999999994 753.96621 381.38901999999996 749.45808 393.03027 C 747.16915 399.96596999999997 743.6029599999999 404.89763999999997 740.96958 411.31910999999997 C 764.2524099999999 400.70703 773.89605 377.98911999999996 776.58821 356.27984999999995 C 779.29417 334.45849 774.9625 314.22749999999996 773.35289 308.41772999999995 C 770.34242 296.11154999999997 760.65141 281.15874999999994 757.74148 278.91486 C 754.8886200000001 277.23166 744.18298 277.49399999999997 742.08534 279.70345 z M 91.787697 278.10423 C 96.185901 278.68051999999994 118.93427 281.64306999999997 123.33247999999999 282.21938 C 123.33247999999999 282.21938 117.4981 293.69077 116.82889999999999 295.70673 C 121.14980999999999 296.0938 80.32315399999999 292.41443 84.64407899999999 292.8015 C 84.24067699999999 292.48418999999996 90.66730299999999 278.83619999999996 91.55161399999999 278.10979 C 91.56804399999999 278.09639 91.64851399999999 278.09468999999996 91.78769699999998 278.10379 C 91.78769699999998 278.10379 91.78769699999998 278.10382 91.78769699999998 278.10382 z M 723.24398 284.79834 C 723.35926 284.79034 723.4276199999999 284.79334 723.44337 284.80863999999997 C 724.66311 285.8886 730.67858 297.07183999999995 730.20961 297.39773999999994 C 729.87977 297.62694999999997 723.29077 299.00419999999997 715.518 300.4161399999999 C 710.47676 301.0206999999999 705.56678 302.5838099999999 700.53353 303.0234999999999 C 699.48442 303.0618999999999 693.7720800000001 291.0025799999999 694.5544600000001 290.4476899999999 C 695.0101900000001 290.12452999999994 707.07082 287.69999999999993 715.3755600000001 286.1403999999999 C 719.2992200000001 285.40760999999986 722.4378700000001 284.85165999999987 723.24409 284.7989399999999 C 723.24409 284.7989399999999 723.2439800000001 284.7988099999999 723.2439800000001 284.7988099999999 z M 114.49919 307.31164 C 113.22765 311.76403 113.91183 316.35712 112.95759 321.92278 C 100.59797 321.50973 88.06768199999999 321.08187 75.52175399999999 320.63547 C 77.09070099999998 315.74744 77.37267699999998 310.08226 79.88899399999998 305.47567 C 91.08285999999998 306.16355 114.49918999999998 307.31163999999995 114.49918999999998 307.31163999999995 z M 733.09248 307.97751 C 733.17578 307.98151 733.2257900000001 307.98960999999997 733.23949 308.00361 C 734.41152 310.85310999999996 738.6837400000001 323.48436999999996 737.73027 324.08763999999996 C 730.94543 325.37658999999996 710.16347 325.63899 706.09817 325.15468 C 704.87765 322.17032 703.09158 312.25347 703.70173 311.8352 C 704.0197 311.61704 709.34319 310.82815999999997 715.34875 310.02407999999997 C 723.05612 309.00044999999994 731.84901 307.92380999999995 733.09248 307.97754 C 733.09248 307.97754 733.09248 307.97754999999995 733.09248 307.97754999999995 z M 112.41044 333.24871 C 112.36204 338.77792 112.34664 344.15016 112.36764 349.28995000000003 C 108.08363999999999 349.20615000000004 103.79379999999999 349.12619 99.525308 349.05248000000006 C 90.971158 348.90448000000004 79.86161299999999 348.4024800000001 72.24837299999999 348.3055800000001 C 71.98180399999998 341.46927000000005 72.65712699999999 334.97359000000006 71.99456399999998 332.1719700000001 C 86.01880599999998 332.9047900000001 100.44382999999999 332.9661500000001 112.41042999999999 333.2487100000001 z M 424.14006 329.65603000000004 C 422.45693 329.66633 420.74158 329.68763000000007 418.99179 329.72123000000005 C 418.55958 329.72923000000003 418.1298 329.73853 417.70277999999996 329.74803 C 415.86587 329.78873000000004 414.07712999999995 329.84043 412.32671999999997 329.90371000000005 C 398.03603 330.42152000000004 386.26836999999995 331.7252500000001 371.56436999999994 334.35232 C 361.85374999999993 336.08726 346.68668999999994 339.5312 345.58791999999994 340.26426000000004 C 344.97964999999994 340.67005000000006 345.9157399999999 345.56097000000005 347.18415999999996 348.58769 C 347.55407999999994 349.47057 346.4303 349.55248 330.96595999999994 349.41612000000003 C 321.02566999999993 349.32852 311.93517999999995 349.40582000000006 303.66597999999993 349.65983000000006 C 267.72761999999994 350.77027000000004 247.42196999999993 355.19121000000007 241.57544999999993 363.60488000000004 C 236.60738999999992 370.75439000000006 235.06145999999993 382.97394 238.16873999999993 390.66949000000005 C 240.21755999999993 395.74368000000004 244.51007999999993 401.53011000000004 249.13314999999994 405.46715000000006 C 262.47238999999996 416.82698000000005 283.5987099999999 422.94434000000007 305.2051599999999 422.87779000000006 C 320.8123299999999 422.83319000000006 336.6607899999999 419.58849000000004 350.34588999999994 412.99153000000007 C 357.65108999999995 409.47003000000007 368.51167999999996 401.3631700000001 374.17099999999994 395.26486000000006 C 378.68906999999996 390.39631 385.08946999999995 381.8101500000001 383.7640099999999 382.39572000000004 C 383.3989899999999 382.55699000000004 379.3274799999999 384.70451 374.72092999999995 387.16934000000003 C 358.42461999999995 395.88903000000005 339.51393999999993 403.20596 327.78722999999997 405.24746000000005 C 320.70822 406.47984 312.51646999999997 406.45521 304.6638 405.44849000000005 C 293.50966 404.02020000000005 283.0367 400.60512000000006 277.63624999999996 396.06629000000004 C 270.89576999999997 389.42968 271.00992999999994 382.92023000000006 275.31159999999994 376.65378000000004 C 279.18301999999994 371.06137000000007 282.09241999999995 369.07155000000006 289.10161999999997 367.12954 C 293.90579999999994 365.79846000000003 298.8268 364.89885000000004 303.80575 364.42782 C 316.71697 363.20982 330.06633999999997 364.86974 342.87873 369.38506 C 356.30721 374.33793000000003 375.01945 381.63419 375.01945 381.63419 C 379.76579 379.86593999999997 389.05243 377.63144 389.05243 377.63144 C 387.31048000000004 382.73458 384.76752 390.59597 381.41937 394.11651 C 390.8337 407.06721 399.85966 422.40468 406.51056 434.31691 C 408.45101 434.90576 410.387 435.36669 412.30158 435.69557000000003 C 416.83558 436.47487 421.24297 436.51173000000006 425.29777 435.75807000000003 C 426.82102000000003 435.47505 428.29367 435.08056000000005 429.70365000000004 434.57241000000005 C 435.73152000000005 420.38661 444.42225 408.92521000000005 451.45188 399.59890000000007 C 451.44158000000004 399.61260000000004 453.64824000000004 396.70378000000005 453.63789 396.71744000000007 C 453.92381 396.0735900000001 446.17052 381.18784000000005 447.2783 376.8223700000001 C 453.53183 377.80196000000007 459.26311 382.6017700000001 463.48805 387.1750800000001 C 472.49161 379.7182700000001 486.17735999999996 374.0173500000001 496.99408999999997 371.1382900000001 C 506.50537999999995 368.6911000000001 518.97638 367.7296000000001 529.38829 368.3093400000001 C 534.90539 368.6191300000001 539.8647599999999 369.3614800000001 543.52013 370.5514300000001 C 553.84479 373.9124900000001 558.83598 387.5310700000001 552.90182 396.41676000000007 C 550.5708000000001 399.9072300000001 544.96874 404.10589000000004 540.0939400000001 406.0045600000001 C 527.0532600000001 410.0991900000001 511.6017800000001 411.1522900000001 498.7215400000001 409.00680000000006 C 481.76327000000015 406.01433000000003 468.9385100000001 399.02033000000006 456.7094300000001 386.32951 C 451.2279100000001 380.64118 450.8064300000001 380.34091 451.3079700000001 382.37586000000005 C 452.19125000000014 385.9594900000001 455.4937400000001 392.53548000000006 459.1673900000001 398.03692000000007 C 468.74373000000014 412.37822000000006 485.2907100000001 424.23958000000005 500.8748400000001 427.61415000000005 C 508.23407000000014 429.20773 518.9692200000002 429.19693000000007 529.8071400000001 427.93455000000006 C 539.5502200000001 426.80249000000003 549.3773300000001 424.65332000000006 556.8054100000002 421.7823900000001 C 572.1125600000001 415.8662100000001 580.9482400000002 407.5981000000001 585.1427500000002 395.35532000000006 C 587.7159800000002 386.36401000000006 587.9104400000002 368.93293000000006 582.5326900000002 362.1889300000001 C 577.6151500000002 356.2495800000001 564.7997500000002 352.2560800000001 545.1516400000003 350.39080000000007 C 525.3545300000003 349.2741000000001 509.09673000000026 349.95517000000007 489.4512300000003 350.1625200000001 C 494.0928900000003 342.12475000000006 491.4145600000003 340.0486000000001 486.1618800000003 338.28224000000006 C 467.6937800000003 332.10892000000007 449.9301200000003 329.58394000000004 425.2831800000003 329.65119000000004 C 425.2831800000003 329.65119000000004 425.2831800000003 329.65119000000004 425.2831800000003 329.65119000000004 C 424.9037800000003 329.65213000000006 424.5227500000003 329.65519000000006 424.1400600000003 329.65719 C 424.1400600000003 329.65719 424.1400600000003 329.65711 424.1400600000003 329.65711 z M 739.3463899999999 335.30116000000004 C 738.6968499999999 339.79954000000004 741.0030199999999 346.84089000000006 738.9083499999999 350.71716000000004 C 727.90036 351.60150000000004 718.70242 351.85173000000003 707.37772 352.33883000000003 C 707.00758 346.76225000000005 707.86632 339.9918 708.2338299999999 336.05073000000004 C 719.6185599999999 335.79404000000005 720.94432 335.72363000000007 722.4065899999999 335.66960000000006 C 724.2038299999999 335.6032000000001 725.7157599999999 335.56960000000004 739.3462699999999 335.30116000000004 C 739.3462699999999 335.30116000000004 739.3463899999999 335.30116000000004 739.3463899999999 335.30116000000004 z M 425.76280999999994 343.53327 C 433.85134999999997 343.54707 441.49639999999994 343.74145000000004 444.49895999999995 344.13223 C 453.93722999999994 345.36062 457.67132 345.95995 457.65812999999997 346.28580999999997 C 457.65112999999997 346.46322 455.66456999999997 347.22524 453.24476999999996 347.97855999999996 C 445.47801 350.39646999999997 433.71047999999996 357.46311 425.27563 364.65441 C 424.18242999999995 365.58644 423.14574999999996 366.52009 422.18165 367.44539 C 420.36404999999996 369.18983 418.78357 370.61872 418.66623 370.6189 C 416.82265 369.02969 414.77164999999997 366.95649 413.22893999999997 365.42431 C 412.93435999999997 365.13149 412.63109 364.83687 412.31991 364.54096 C 405.80419 358.34749 395.84310999999997 351.61451999999997 389.75851 349.33819 C 387.1336 348.35618999999997 384.42116 347.54907 383.7336 347.54711 C 383.04568 347.54510999999997 382.48224000000005 347.3393 382.48161000000005 347.08984999999996 C 382.47961000000004 346.62595999999996 391.17393000000004 345.36848 402.27281000000005 344.19392999999997 C 404.47405000000003 343.96095999999994 408.09356 343.79121 412.32372000000004 343.68190999999996 C 412.32372000000004 343.68190999999996 412.32372000000004 343.68190999999996 412.32372000000004 343.68190999999996 C 414.02983000000006 343.63800999999995 415.83468000000005 343.60371 417.68623 343.57908 C 420.16661000000005 343.54638 422.73929000000004 343.53078 425.27952000000005 343.53258 C 425.27948000000004 343.53258 425.76284000000004 343.53317 425.76281000000006 343.53317 z M 74.97460199999995 360.39487 C 88.81149499999995 360.64559 101.09365999999994 360.90472 113.66002999999995 361.21348 C 114.08316999999995 366.81205 116.52186999999995 372.37578 116.89023999999995 377.62521 C 118.89737999999996 377.63840999999996 76.80869099999995 377.38223999999997 78.81584999999995 377.39540999999997 C 75.98231299999995 371.79816 75.45070599999995 366.02657999999997 74.97460199999995 360.39489 C 74.97460199999995 360.39489 74.97460199999995 360.39486999999997 74.97460199999995 360.39486999999997 z M 738.7197999999999 361.17933000000005 C 738.0143499999998 367.09826000000004 734.4136899999999 371.66225000000003 732.2953799999998 376.76696000000004 C 721.3135399999998 376.38805 710.2896999999998 376.64322000000004 704.6165099999998 375.73709 C 704.6165099999998 375.73709 704.1530099999999 370.96323 706.5572199999998 360.71481 C 717.4486699999998 361.54939 738.7197999999999 361.17933 738.7197999999999 361.17933 z M 728.6109599999999 387.86597000000006 C 727.5635599999998 390.01095000000004 722.6275499999998 400.51812000000007 721.5801599999999 402.6631100000001 C 713.6712199999998 403.29239000000007 701.3789099999999 402.86644000000007 694.0854899999998 401.2227400000001 C 693.6811199999999 400.9378000000001 698.7934599999999 388.1451000000001 699.6190999999998 387.3580700000001 C 709.0029599999998 387.24173000000013 718.9485999999998 387.6527700000001 728.6109599999997 387.8659700000001 z M 118.99216999999987 388.0627800000001 C 120.10689999999987 393.2337000000001 125.71689999999987 400.1244500000001 126.92875999999987 405.0194400000001 C 114.20716999999986 404.8435500000001 100.49226999999988 403.5908700000001 88.73174999999986 403.5485700000001 C 81.26822999999986 389.9047200000001 81.37131399999987 386.8127600000001 81.37131399999987 386.8127600000001 C 78.12536999999988 387.4094800000001 83.80806899999988 387.5976300000001 92.16092299999987 387.7006500000001 C 100.56208999999987 387.8042800000001 111.45761999999988 387.8211000000001 118.99216999999987 388.0627800000001 z M 671.9485499999998 389.9832100000001 C 648.3598299999999 404.3829000000001 628.8759099999999 412.3608400000001 606.8946999999998 418.8818000000001 C 608.1194999999998 443.2943500000001 608.2540299999998 458.11869000000013 606.9105999999998 483.7465300000001 C 616.7737399999999 475.2113600000001 625.0765099999999 467.1893700000001 631.4817699999999 457.00096000000013 C 636.3596399999999 449.22079000000014 641.1542599999999 439.8482300000001 641.1601299999999 437.31748000000016 C 646.8064399999998 428.52579000000014 656.8609299999998 419.92218000000014 664.5406899999998 411.73316000000017 C 672.1430699999999 403.6266600000002 677.0999599999998 396.20162000000016 671.9483499999998 389.98321000000016 z M 144.96431999999982 392.6805900000001 C 144.1342399999998 400.6559000000001 148.97338999999982 409.3185000000001 155.03793999999982 416.7795400000001 C 161.07946999999982 424.2122700000001 168.4370899999998 430.5569200000001 172.71658999999983 433.5341600000001 C 177.69800999999984 436.9274100000001 186.38741999999982 441.8215900000001 188.89420999999982 442.6246900000001 C 191.67600999999982 450.6676400000001 195.20752999999982 460.0646900000001 199.6408699999998 466.9035800000001 C 205.2498299999998 473.4114400000001 210.4033799999998 481.7083600000001 218.26357999999982 483.7901800000001 C 218.03848999999983 463.0843900000001 216.4185499999998 442.1199400000001 215.48277999999982 423.0430100000001 C 208.75588999999982 421.3569300000001 202.03920999999983 418.9386800000001 196.7238699999998 416.8682100000001 C 177.6558099999998 410.0232700000001 162.5791899999998 400.68968000000007 145.18100999999982 392.7256700000001 C 145.0994099999998 392.6896700000001 145.02729999999983 392.6741700000001 144.96432999999982 392.6805700000001 C 144.96432999999982 392.6805700000001 144.96431999999982 392.6805900000001 144.96431999999982 392.6805900000001 z M 596.3898099999999 423.4638300000001 C 569.3280799999999 433.5474900000001 543.26416 441.1619100000001 518.0511599999999 444.8285000000001 C 518.2672999999999 462.5592500000001 518.3085299999999 465.40708000000006 518.5246699999999 483.13785000000007 C 518.67829 496.00921000000005 518.8309699999999 509.93782000000004 518.9326399999999 523.6786000000001 C 547.8877699999999 517.2249400000001 571.3400899999999 509.9560900000001 596.7193999999998 499.2085200000001 C 597.0334099999999 483.0060200000001 597.5267099999999 471.53622000000007 597.5655399999998 460.29793000000006 C 597.6049399999998 448.9127700000001 597.2496599999998 438.2515200000001 596.3898099999998 423.4638300000001 z M 231.77427999999992 428.1400200000001 C 232.17274999999992 435.65962000000013 232.78030999999993 449.5447200000001 233.3354899999999 464.8484400000001 C 233.8909899999999 480.1606200000001 234.3120899999999 496.99333000000007 234.9261799999999 509.7176100000001 C 261.7312199999999 516.1783800000001 288.9709399999999 526.6982500000001 312.9628999999999 530.1680900000001 C 313.52778999999987 501.0086200000001 313.2408099999999 472.9426500000001 311.46767999999986 447.6880500000001 C 286.14072999999985 441.4153500000001 257.66938999999985 436.2360100000001 232.00377999999986 428.1826200000001 C 231.92227999999986 428.1561200000001 231.84580999999986 428.1393200000001 231.77427999999986 428.1400200000001 C 231.77427999999986 428.1400200000001 231.77427999999986 428.1399900000001 231.77427999999986 428.1399900000001 z M 504.9783999999999 446.32616000000013 C 482.9730299999999 449.9073300000001 448.87614999999994 454.0185700000001 425.9062899999999 454.3972900000001 C 427.1704999999999 510.2642100000001 425.5498199999999 438.7664600000001 426.8140399999999 494.6333800000001 C 427.1083699999999 508.3170900000001 427.3926199999999 522.8767700000001 427.5958399999999 537.6270700000001 C 436.4563799999999 537.4228400000001 450.2063899999999 536.7202600000002 464.97100999999986 534.9135700000002 C 479.65931999999987 533.1162300000002 494.7704199999999 530.2872700000001 505.99039999999985 526.1820400000001 C 505.86971999999986 512.2300500000001 505.69341999999983 498.12892000000016 505.51750999999985 485.0857100000001 C 505.37809999999985 474.74693000000013 505.1178199999998 456.6649400000001 504.97839999999985 446.32616000000013 z M 324.04237999999987 448.9979100000001 C 323.99307999999985 456.1129600000001 324.80904999999984 476.2514200000001 325.3249699999999 495.4177200000001 C 325.8393499999999 514.52659 326.0278599999999 532.7711200000001 326.0278599999999 532.7711200000001 C 317.7321399999999 531.7574300000001 338.65694999999994 534.1360600000002 341.3241099999999 534.4697700000002 C 355.1992899999999 536.2058000000002 378.6502199999999 538.2808300000002 390.24218999999994 538.8032500000002 C 397.5249999999999 539.1195500000001 405.50217999999995 538.5764100000001 412.1713899999999 538.5228700000001 C 412.17097999999993 538.5228800000001 412.3577299999999 538.5219200000001 412.35732999999993 538.5219200000001 C 412.30742999999995 535.0604400000001 412.2527799999999 531.6124600000002 412.19424999999995 528.1874200000001 C 412.00046 516.8417200000001 411.76458999999994 505.72530000000006 411.52111999999994 495.0973900000001 C 411.3657099999999 488.2707000000001 410.69708999999995 461.32961000000006 410.54167999999993 454.5029300000001 C 381.62139999999994 454.1252200000001 350.0564999999999 454.5476300000001 324.0423799999999 448.9982500000001 C 324.0423799999999 448.9982500000001 324.0423799999999 448.9983200000001 324.0423799999999 448.9983200000001 z" stroke-linecap="round" />
</g>
		<g transform="matrix(1 0 0 1 34.1 -13.83)" id="path834"  >
<path style="stroke: rgb(0,0,0); stroke-width: 1; stroke-dasharray: none; stroke-linecap: butt; stroke-dashoffset: 0; stroke-linejoin: miter; stroke-miterlimit: 4; fill: none; fill-rule: nonzero; opacity: 1;" vector-effect="non-scaling-stroke"  transform=" translate(-437.03, -311.82)" d="M 434.16211 311.96618 L 439.89453 311.66931 L 439.89453 311.66931" stroke-linecap="round" />
</g>
		<g transform="matrix(1 0 0 1 85.65 -106.66)" id="path836"  >
<path style="stroke: rgb(0,0,0); stroke-width: 1; stroke-dasharray: none; stroke-linecap: butt; stroke-dashoffset: 0; stroke-linejoin: miter; stroke-miterlimit: 4; fill: none; fill-rule: nonzero; opacity: 1;" vector-effect="non-scaling-stroke"  transform=" translate(-488.58, -218.99)" d="M 485.89844 221.02868 L 491.25586 216.94665" stroke-linecap="round" />
</g>
</g>
</g>
</svg>