<?xml version="1.0" encoding="UTF-8" standalone="no"?>
<!-- Created with Inkscape (http://www.inkscape.org/) -->

<svg
   width="195.82033mm"
   height="70.761024mm"
   viewBox="0 0 195.82033 70.761024"
   version="1.1"
   id="svg1"
   xml:space="preserve"
   sodipodi:docname="papa gumbo sticker.svg"
   inkscape:version="1.3.2 (1:1.3.2+202311252150+091e20ef0f)"
   inkscape:export-filename="papa gumbo sticker.png"
   inkscape:export-xdpi="61"
   inkscape:export-ydpi="61"
   xmlns:inkscape="http://www.inkscape.org/namespaces/inkscape"
   xmlns:sodipodi="http://sodipodi.sourceforge.net/DTD/sodipodi-0.dtd"
   xmlns="http://www.w3.org/2000/svg"
   xmlns:svg="http://www.w3.org/2000/svg"><sodipodi:namedview
     id="namedview1"
     pagecolor="#5b5b5b"
     bordercolor="#666666"
     borderopacity="1.0"
     inkscape:showpageshadow="2"
     inkscape:pageopacity="0.0"
     inkscape:pagecheckerboard="0"
     inkscape:deskcolor="#d1d1d1"
     inkscape:document-units="mm"
     inkscape:zoom="0.65979682"
     inkscape:cx="347.83435"
     inkscape:cy="287.96744"
     inkscape:window-width="1366"
     inkscape:window-height="695"
     inkscape:window-x="0"
     inkscape:window-y="0"
     inkscape:window-maximized="1"
     inkscape:current-layer="layer1"
     showgrid="false" /><defs
     id="defs1"><inkscape:path-effect
       effect="envelope"
       id="path-effect6"
       is_visible="true"
       lpeversion="1"
       yy="true"
       xx="true"
       bendpath1="M 28.405081,112.38483 H 777.45723"
       bendpath2="M 777.45723,112.38483 V 538.9016"
       bendpath3="M 28.405081,538.9016 H 777.45723"
       bendpath4="M 28.405081,112.38483 V 538.9016" /><inkscape:path-effect
       effect="perspective-envelope"
       up_left_point="28.405081,112.38483"
       up_right_point="777.45723,112.38483"
       down_left_point="28.405081,538.9016"
       down_right_point="777.45723,538.9016"
       id="path-effect5"
       is_visible="true"
       lpeversion="1"
       deform_type="envelope_deformation"
       horizontal_mirror="false"
       vertical_mirror="false"
       overflow_perspective="false" /><inkscape:path-effect
       effect="skeletal"
       id="path-effect2"
       is_visible="true"
       lpeversion="1"
       pattern="M 0,4.9921382 C 0,2.2364779 2.2364779,0 4.9921382,0 c 2.7556604,0 4.9921383,2.2364779 4.9921383,4.9921382 0,2.7556604 -2.2364779,4.9921383 -4.9921383,4.9921383 C 2.2364779,9.9842765 0,7.7477986 0,4.9921382 Z"
       copytype="single_stretched"
       prop_scale="0.05"
       scale_y_rel="false"
       spacing="0"
       normal_offset="0"
       tang_offset="0"
       prop_units="false"
       vertical_pattern="false"
       hide_knot="false"
       fuse_tolerance="0" /><inkscape:path-effect
       effect="envelope"
       id="path-effect4507"
       is_visible="true"
       yy="true"
       xx="true"
       bendpath1="m 145.51468,71.884943 c 445.10956,-72.83171987 872.62322,-81.6652158 1275.25492,0"
       bendpath2="M 1420.7696,71.884943 V 703.02758"
       bendpath3="m 145.51468,703.02758 c 482.5345,55.21672 895.45202,43.52218 1275.25492,0"
       bendpath4="M 145.51468,71.884943 V 703.02758"
       bendpath1-nodetypes="cc"
       bendpath3-nodetypes="cc"
       lpeversion="0" /><inkscape:path-effect
       effect="envelope"
       id="path-effect21"
       is_visible="true"
       yy="true"
       xx="true"
       bendpath1="M 163.93702,0 C 364.51195,94.225727 1063.38,103.6005 1207.6141,0"
       bendpath2="m 1207.6141,0 c 0.8424,164.17789 3.3624,335.57527 0,721.59161"
       bendpath3="m 163.93702,721.59161 c 342.98591,-20.66954 690.11659,-23.87834 1043.67708,0"
       bendpath4="m 163.93702,0 c -14.15807,228.90519 -39.88264,448.31302 0,721.59161"
       bendpath1-nodetypes="cc"
       bendpath3-nodetypes="cc"
       bendpath2-nodetypes="cc"
       bendpath4-nodetypes="cc"
       lpeversion="0" /><inkscape:path-effect
       effect="ellipse_5pts"
       id="path-effect19"
       is_visible="false"
       lpeversion="0" /><inkscape:path-effect
       effect="ellipse_5pts"
       id="path-effect17"
       is_visible="false"
       lpeversion="0" /></defs><g
     inkscape:label="Layer 1"
     inkscape:groupmode="layer"
     id="layer1"
     transform="translate(-5.4281255,-12.523855)"><rect
       style="fill:none;stroke:#ffffff;stroke-width:2.8077;stroke-linecap:round;stroke-dasharray:none;paint-order:markers fill stroke"
       id="rect1"
       width="193.01263"
       height="67.953323"
       x="6.8319755"
       y="13.927705" /><g
       id="g2"
       transform="matrix(0.12758681,0,0,0.12758681,95.945004,5.3668054)"
       style="fill:#ffffff"><path
         style="fill:#ffffff;stroke:none;stroke-width:1.01223;stroke-miterlimit:4;stroke-dasharray:none"
         d="m 386.56883,112.59547 c -28.38881,2.27859 -57.19908,4.28631 -81.40552,12.23658 -7.42544,2.52126 -12.24742,6.31073 -12.31107,9.68304 -0.0643,3.40489 1.58281,5.3602 14.44531,14.75359 10.28258,7.46933 20.46971,14.72317 30.75229,22.19249 -2.11479,0.59623 10.38867,-2.93004 8.27388,-2.33381 21.98473,-6.20635 44.48353,-9.62798 66.05489,-10.27462 2.97412,-0.0891 5.92231,-0.12514 8.84047,-0.109 1.45778,0.008 2.91141,0.0293 4.36047,0.0636 22.32467,0.52888 43.29854,4.15971 61.12848,10.88033 4.427,1.6687 8.42764,3.06387 8.8969,3.10558 0.74046,0.0659 7.24233,-4.76113 15.09557,-10.84602 7.52932,-5.83389 17.40194,-13.68044 23.05814,-18.43079 2.78419,-2.5127 7.50027,-5.30869 7.69191,-9.95749 0.0905,-3.11137 -1.84411,-5.29443 -7.21823,-7.2123 -3.80189,-1.35594 -9.31612,-2.57753 -17.05587,-3.9069 -31.969,-5.89292 -61.22939,-8.84009 -91.3065,-9.74569 -4.47574,-0.13475 -8.97529,-0.22429 -13.50773,-0.27085 -8.44359,-0.0868 -17.02309,-0.0251 -25.79339,0.17232 z m 31.81122,10.71224 c 2.448,-0.0217 4.93279,0.0326 7.40945,0.13273 3.72242,0.15053 7.40081,0.40323 10.90345,0.65315 0.0264,-0.51177 -0.51439,9.91635 -0.48805,9.40458 -0.27272,5.20229 -0.7986,9.71435 -1.16075,9.97407 -0.28829,0.2068 -4.20467,0.4232 -9.3865,0.54291 0,0 0,0 0,0 -1.29026,0.0299 -2.66249,0.0538 -4.07334,0.0695 -2.6e-4,0 -0.28784,0.002 -0.28809,0.002 -4.15542,0.0434 -6.92278,0.0673 -8.91974,0.0351 -3.81987,-0.0614 -4.32854,-0.33027 -4.55551,-0.95285 -0.71703,-6.71982 -0.75865,-11.96002 -1.01857,-19.23686 1.81915,-0.23592 3.70182,-0.38763 5.56642,-0.48231 2.06993,-0.10511 4.10954,-0.13952 6.01123,-0.14219 z m -25.49103,1.26579 c 0.48516,0.40387 1.60531,5.24006 2.5151,10.10092 0.90821,4.85251 1.60215,9.70743 1.23857,9.94769 -0.36818,0.24329 -5.93519,0.95516 -12.37397,1.57763 -6.44112,0.62268 -12.23261,1.12013 -12.8775,1.11076 -0.84275,-0.012 -2.1594,-2.71721 -4.70492,-9.56294 -1.94715,-5.23662 -3.24887,-9.66704 -2.896,-9.89492 0.5529,-0.35702 7.7884,-1.95794 14.84886,-2.75324 7.93524,-0.80088 8.40892,-0.24368 14.24986,-0.5259 z m 61.50585,1.62457 c 1.04367,-2e-5 7.55174,0.88464 13.85765,1.80939 6.31121,0.92552 12.44126,1.89532 12.75418,2.09679 0.33598,0.21628 -1.8734,4.73182 -4.9247,10.09051 -4.67315,8.20715 -5.79235,9.76428 -7.10565,9.7151 -0.82347,-0.0309 -6.1804,-0.88617 -11.41335,-1.77923 -5.2294,-0.89245 -10.32019,-1.8195 -10.59159,-1.97434 -0.17327,-0.0988 1.17029,-4.67628 2.97835,-10.1189 2.46416,-7.41759 3.57051,-9.83934 4.44511,-9.83932 z m -107.93824,4.3562 c 0.88535,0.66674 3.59488,5.43395 5.98525,10.13536 2.38742,4.69563 4.44784,9.30664 4.02596,9.5476 -0.18632,0.10637 -4.63714,1.49494 -9.88842,3.08487 -5.25214,1.59021 -9.86565,2.88829 -10.25403,2.88427 -0.34203,-0.004 -5.22854,-3.99433 -10.08168,-8.0933 -4.85172,-4.09777 -9.67032,-8.30391 -9.84748,-8.73619 9.73192,-4.12661 26.11495,-8.8814 30.0604,-8.82261 z m -87.29661,5.9795 c 1.46705,10.08182 2.22001,21.15221 2.39226,29.42186 0.0824,4.2867 0.15921,8.52384 0.23203,12.80244 -0.74731,-0.34737 8.52069,3.95668 7.77338,3.60932 6.33381,2.93653 20.0879,9.89391 36.62481,18.36825 17.94679,7.27742 37.20071,17.70931 55.73178,28.11557 18.57833,10.4328 35.93658,20.54732 50.43773,27.42805 2.64326,1.25474 5.17872,2.3951 7.5924,3.40177 -0.77846,0.479 6.15839,-3.78761 5.37991,-3.3086 24.5826,-15.10546 49.91743,-30.46921 75.97136,-43.62328 0.0525,-0.0264 7.80679,-3.91961 7.85924,-3.94592 0.0321,-0.14266 1.47162,-6.50944 1.5041,-6.65307 2.4165,-10.68625 5.41789,-16.52973 10.73135,-18.5529 3.73527,-1.70976 7.4922,-0.26007 11.01853,1.51143 4.94255,2.93129 8.17252,7.06676 12.54327,11.34242 2.35106,-10.2374 3.61414,-20.28871 11.97567,-23.50757 2.54022,-0.92751 2.60279,-0.65245 6.16292,-0.97545 5.15922,0.6005 12.20425,2.53376 13.37146,4.81059 1.8212,-12.51993 3.88068,-25.41197 6.27303,-38.48434 -3.25925,1.24418 -11.65566,4.50296 -21.54616,8.85861 -9.85169,4.33856 -20.41127,9.43163 -27.99028,14.01048 -21.82686,13.18169 -49.90328,31.43956 -85.83697,55.49046 -7.10759,4.75731 -14.81113,9.89705 -22.00459,14.67975 0.0239,-0.016 -7.24725,4.81226 -7.22333,4.79635 -1.91949,-1.32219 -3.84376,-2.64192 -5.77188,-3.95877 -35.63947,-24.33236 -70.66381,-46.4048 -105.36617,-67.7351 0.19573,0.12089 -3.51668,-2.16905 -7.24836,-4.4488 -3.73169,-2.27976 -7.48353,-4.54855 -7.28578,-4.42875 -15.71042,-9.5179 -32.29989,-19.0046 -33.30171,-19.0248 z m 233.73595,-4.15202 c 0.14323,-0.1238 6.36535,1.37441 13.82218,3.32501 10.54043,2.75719 13.45393,3.73034 13.09915,4.39685 -0.2495,0.46862 -3.96469,4.64769 -8.25607,9.29964 -4.54993,4.93229 -8.28909,8.45238 -8.96914,8.42545 -1.12308,-0.044 -20.08176,-4.95899 -20.79206,-5.39305 -0.14086,-0.086 2.46047,-4.97477 5.17977,-9.88999 2.72306,-4.92201 5.55291,-9.85 5.91617,-10.16391 z m 226.03163,26.1882 c -0.0126,-0.0183 -0.049,-0.0188 -0.10842,8.8e-4 -10.93802,3.62269 -23.23148,7.77699 -39.23584,13.12769 -17.31689,5.79223 -28.59468,9.53408 -45.35337,15.08842 -20.25822,6.71861 -36.78822,12.17923 -43.36791,14.59494 -0.30132,0.11059 -6.01523,2.20418 -6.3165,2.31478 0.77965,4.19614 0.85885,8.13033 2.01988,12.17718 0.12743,-0.004 3.5356,-1.44377 7.57707,-3.20967 13.55933,-5.92483 27.16937,-11.44078 39.71495,-16.15662 17.833,-6.69872 33.95093,-11.93985 45.25109,-14.59306 5.07422,-1.3131 10.29499,-1.86109 15.15316,-2.11996 6.46013,-6.84107 19.73022,-13.78817 24.66623,-21.22459 z m -463.1005,4.13904 c -0.0389,-0.74805 -17.90732,6.64816 -25.32996,13.36364 2.45092,1.59793 8.1394,5.03611 8.1394,5.03611 6.57907,-4.49212 18.19974,-9.77519 18.19974,-9.77519 -0.24218,-2.55322 -0.74396,-8.47916 -0.90616,-8.61442 -0.0156,-0.0131 -0.0509,-0.0163 -0.10306,-0.0103 0,0 0,0 0,1e-5 z m -54.08029,5.96305 c -0.0323,0.006 -0.0514,0.0179 -0.0573,0.0367 -0.11527,0.36679 1.30224,8.22885 3.01276,17.33137 1.84661,9.80962 4.00461,20.78008 5.98535,29.88004 0.24297,0.0473 5.73123,1.1131 5.9742,1.16046 21.96939,4.25575 54.7228,15.39603 88.33687,29.57711 6.94621,2.93034 13.95178,5.99686 20.92977,9.16871 13.2244,6.01114 26.38791,12.38835 38.38851,18.54602 17.14121,7.62575 32.47927,18.60391 48.01725,28.51439 1.68962,1.0781 3.38411,2.14542 5.08691,3.19709 0.0222,0.006 0.17547,-0.0754 0.44161,-0.23105 1.05585,-0.61713 3.88791,-2.40875 7.4307,-4.70348 0,0 0,0 0,0 0.96977,-0.6281 1.99279,-1.29388 3.04709,-1.9835 17.75067,-11.37219 32.32662,-20.17346 48.293,-29.33498 17.91818,-10.5662 36.07771,-21.17158 54.18762,-31.53852 0.0103,-0.0453 0.02,-0.0916 0.0306,-0.13852 0.18764,-4.53647 0.79374,-9.26351 -0.71985,-13.75562 -0.43187,-1.21054 -0.55178,-1.21987 -4.58955,-0.41975 -8.73698,1.73132 -25.613,8.16089 -44.09829,16.293 -18.12262,7.71312 -41.068,19.84862 -56.13026,27.83568 0,0 0,10e-6 0,10e-6 -2.58522,1.37099 -4.91031,2.60498 -6.93053,3.66922 -1.91355,-0.99676 -3.93404,-2.0637 -6.03612,-3.1837 C 394.576,259.12795 372.20974,246.56514 358.83738,240.23057 344.59596,233.41466 326.11972,224.8397 305.81271,215.452 283.39973,205.0899 253.50257,191.36181 235.5903,183.23564 216.33317,174.49933 202.72947,168.49827 201.74706,168.672 Z m 386.28031,0.94156 c -1.20652,4.52287 -1.32224,7.2586 -1.48358,11.65464 2.97325,2.09066 5.93675,4.16957 8.9093,6.24918 2.97226,2.07945 5.93516,4.14721 8.90695,6.21453 1.93492,-0.80767 11.00408,-4.14727 12.99641,-4.79307 -10.59391,-7.79595 -17.17554,-13.82556 -29.32902,-19.32528 0,0 -6e-5,0 -6e-5,0 z m -166.94906,-5.34239 c -2.88099,-0.0103 -5.78337,0.0367 -8.69927,0.14108 -10.62939,0.38061 -21.37099,1.52399 -31.84274,3.43969 -15.59056,2.85213 -34.30376,8.15154 -32.69817,9.28267 0.18321,0.12906 16.85891,11.33207 36.16185,24.16003 9.73855,5.6261 18.83885,12.88737 28.36696,18.929 2.49134,1.58029 5.01104,3.07797 7.58064,4.44617 0.21266,1.7e-4 2.22295,-1.2739 5.42803,-3.40842 6.5034,-4.3309 17.70285,-12.05412 29.02412,-19.98947 16.85248,-11.81233 33.60586,-23.82097 33.61933,-24.27061 0.0162,-0.5363 -9.29628,-3.8193 -17.68763,-6.24763 -13.3875,-3.87415 -28.77529,-6.0329 -44.77747,-6.42058 -1.48814,-0.036 -2.98037,-0.0566 -4.47565,-0.062 z m 142.33618,12.31873 c -5.13772,-0.32341 -9.09001,1.23134 -11.68234,7.54187 -3.29366,10.5527 -2.22097,16.15679 -0.91224,27.04335 2.88942,-0.69672 5.78071,-1.38804 8.67524,-2.07419 0,0 -1.07697,-6.62526 2.58686,-8.56152 1.32918,0.33932 3.07553,4.39605 4.52204,9.11797 1.44403,4.71396 2.6019,10.13153 2.68562,13.29022 -0.30056,4.90854 -1.47582,11.89187 -4.5392,4.76261 -4.20108,1.86687 -7.50237,4.15243 -11.81456,6.10598 4.34185,10.42344 14.67055,12.27377 21.05256,8.81988 3.58781,-3.24383 7.17616,-8.30583 7.49363,-21.55796 -0.89291,-7.78615 -2.98101,-17.44179 -6.00865,-25.83315 -3.03599,-8.4146 -7.07476,-15.7297 -12.05896,-18.65506 z m -36.88775,9.91803 c -0.27292,-0.0221 -0.54467,-0.0317 -0.81635,-0.0293 -3.0885,0.0264 -6.68589,3.57782 -8.61139,8.50074 -1.56667,4.00561 -5.80081,20.85189 -4.24845,28.01405 4.35772,-1.07015 8.7181,-2.12905 13.08555,-3.17725 0.50082,-2.14458 -0.92777,-5.89882 2.03595,-7.7487 2.52713,1.03104 5.01912,8.01407 6.10343,15.78894 1.0869,7.79344 0.76766,16.38956 -2.40927,21.08784 -0.43456,0.47272 0.41388,0.22952 0,0 -1.91207,1.37501 -5.44064,-2.91631 -5.44064,-2.91631 0,0 -7.71021,4.06801 -8.3086,6.09022 5.57431,5.80661 11.02967,8.61456 18.20683,8.11013 12.51731,-6.44585 12.79907,-20.80323 13.12201,-31.23498 0.26795,-9.79151 -0.70715,-14.65371 -4.72535,-23.51829 -3.64445,-8.04025 -7.88408,-13.81064 -12.22975,-16.76167 -1.91678,-1.29961 -3.8527,-2.05056 -5.76386,-2.20537 0,0 -1.1e-4,0 -1.1e-4,0 z m -324.41445,10.27407 c -14.65343,8.97041 -27.82293,21.09424 -38.88224,33.82619 -11.0951,12.77315 -20.39516,26.5357 -27.18638,39.35055 3.73156,2.66527 7.98542,3.15587 11.58655,3.73081 7.64892,-12.2137 16.99992,-25.29914 26.6889,-36.79155 9.71373,-11.52179 20.11368,-21.86741 30.2159,-28.40841 -0.80971,-4.60372 -1.15428,-6.03225 -2.42272,-11.7076 0,0 -1e-5,1e-5 -1e-5,1e-5 z m 429.35508,4.86869 c -3.50975,1.03997 -6.58286,2.35911 -9.84086,3.64103 5.70786,3.89082 10.94579,9.84285 15.08602,14.63565 6.02252,-0.67467 12.20331,-1.22407 12.20331,-1.22407 -2.40686,-2.36601 -5.54526,-5.59611 -9.44108,-9.53064 -3.55162,-3.58691 -6.87672,-6.88159 -8.00739,-7.52197 z m -68.58691,9.9736 c -4.00123,0.7797 -7.57265,2.04246 -11.32837,3.2065 0.77048,5.46218 0.87988,10.20012 0.7991,15.12491 5.78553,-1.744 7.6982,-3.52281 12.56661,-5.95253 -0.54407,-4.33437 -1.27749,-7.76467 -1.91996,-12.33779 5.3e-4,-0.0266 -0.0411,-0.0399 -0.11843,-0.0411 0,0 0,4e-5 0,4e-5 z m 108.58522,8.99995 c -15.33555,1.09068 -30.65628,1.79679 -45.47136,3.59848 -11.8836,1.45895 -26.44725,3.94761 -34.46438,5.92565 0.4026,-0.0993 -6.67915,1.64415 -6.27655,1.54481 -3.91804,12.9584 -11.46044,17.88195 -19.14677,17.69522 -5.66655,-0.52858 -8.03629,-2.34407 -13.0306,-5.14253 -5.56651,16.83852 -13.60516,29.2028 -34.33533,17.08534 -2.40336,-2.06119 -0.92033,-2.5448 -16.86251,5.95519 -4.40406,2.34814 -8.65345,4.65639 -12.72893,6.91123 -30.89199,17.11751 -51.75186,31.23671 -54.98689,37.76851 0,7e-5 -0.0144,0.0284 -0.0144,0.0284 -1.48037,2.9877 -0.9089,3.40367 4.60144,3.38571 5.83029,-0.019 26.89596,1.24747 38.0098,2.2728 17.70473,1.63336 35.34584,4.09165 52.67522,7.32283 35.39419,6.62118 70.32986,16.50161 101.99958,29.42897 17.8278,7.48597 33.26531,15.04112 48.42384,23.3809 1.85523,-12.06818 2.37133,-24.57371 1.6329,-36.70265 -0.68149,-10.10064 -2.46218,-20.10784 -5.22533,-29.77426 -4.44718,-14.11043 -11.49727,-29.66433 -18.77973,-40.68761 -4.08207,-6.09403 -8.31816,-11.12645 -12.61502,-16.37857 -4.28786,0.66895 -8.81082,1.40024 -12.71106,2.13792 -30.95329,6.64854 -62.18264,17.6517 -83.67381,39.62057 -5.05047,5.41417 -10.01188,12.04688 -10.02375,13.40245 0.65075,1.52244 11.57565,2.54149 14.80192,2.64433 26.66526,-0.86405 46.21539,3.32111 69.10671,14.69264 0.83399,0.20192 4.9855,-4.55105 7.74767,-8.87149 6.54965,-12.49567 8.07224,-24.75093 9.17894,-38.29345 -18.86178,10.05004 -40.24556,17.49218 -59.19094,21.75847 -10.05594,2.22922 -24.30463,4.46072 -25.05085,3.94573 6.37183,-12.97637 39.07247,-28.0369 47.65042,-31.32544 5.38511,4.27654 11.58453,8.33669 15.97154,11.63148 7.79256,-3.70399 23.3578,-10.99713 23.3578,-10.99713 2.07356,13.02941 -0.59871,24.53786 -2.63633,36.00305 3.12241,4.89317 6.25938,9.92464 8.71853,15.04426 3.14446,6.60927 8.45608,21.12572 9.108,24.92691 -6.63601,-1.22349 -20.1679,-6.00221 -25.79592,-8.18528 -8.00075,-3.09426 -15.86321,-5.76185 -26.58752,-9.15989 -22.59224,-7.15846 -48.30189,-13.58287 -75.33571,-19.05787 -11.11018,-1.90813 -20.71915,-4.73686 -32.11541,-6.53287 0.008,-0.81238 9.123,-11.47869 13.61992,-15.93406 5.79223,-5.73869 12.12942,-11.15385 18.99236,-16.23705 33.40097,-21.93868 70.09597,-36.1492 101.84213,-43.77642 14.05834,-2.86896 26.41351,-5.3567 39.19694,-6.80548 0.38942,-1.33521 0.92265,-2.92001 0.77861,-4.21978 -0.0262,-0.0186 -0.14791,-0.0277 -0.35518,-0.0301 0,1e-5 0,2e-5 0,3e-5 z m -12.90635,10.15018 c -2.38183,0.3755 -4.66951,0.62032 -6.96163,1.58065 0,0.12926 2.01627,3.19156 4.49683,6.79484 5.90944,8.58379 13.52517,21.23037 18.61846,30.78845 1.47618,2.73754 2.90626,5.69518 4.12748,8.19838 2.63327,-0.6851 11.07806,-0.56879 10.91576,-3.0853 -2.6311,-8.10617 -8.52719,-16.51854 -12.91491,-22.99098 -2.7878,-4.08868 -5.77865,-8.22451 -8.67476,-11.9259 -5.97176,-7.63232 -7.20987,-9.40437 -9.60723,-9.36014 z m -447.65194,-0.83607 c -17.51907,15.74024 -32.21794,36.01533 -39.34242,57.0137 -1.68267,8.8034 -2.81363,17.73885 -0.19569,25.59184 2.88296,8.54767 12.00268,20.23861 15.77427,20.32215 22.52487,-3.70265 44.75531,-12.47348 63.32648,-22.24783 11.8459,-7.39096 24.44682,-14.2589 35.30946,-23.33563 4.4522,-3.79624 4.59789,-4.0267 3.58115,-5.43487 -1.32943,-1.84133 -8.69354,-5.8655 -15.26761,-8.3576 -0.0592,-0.0223 -0.11873,-0.0439 -0.17776,-0.0661 -11.33477,-4.25217 -28.61142,-7.74492 -52.10169,-10.67459 -15.00293,-1.87114 -13.76325,-2.04173 -13.36093,1.48923 0.24356,2.13755 1.24467,4.83427 2.97235,8.02465 3.42324,6.32988 9.70094,14.60927 18.62712,24.34497 7.13936,7.78684 7.37961,8.08257 6.24902,9.43415 -10.86296,6.36842 -21.33223,11.23119 -33.23236,12.05039 -0.32607,-9.198 3.31992,-18.53238 6.01929,-25.57978 0.24728,-0.64218 3.16914,-8.21299 3.41644,-8.85519 -4.13598,-6.22633 -9.68187,-20.43054 -6.97917,-26.13492 0.32011,-0.21478 6.70574,0.52307 14.19168,1.62066 4.53675,0.66519 9.07486,1.32609 13.61149,1.98074 4.76275,-3.89877 12.74791,-10.46867 18.23726,-10.66178 1.22803,0.0229 5.84117,0.73605 10.23314,1.57649 13.40585,2.5653 27.85955,7.1623 42.73174,13.46821 6.08267,2.57899 12.24003,5.44423 18.42966,8.57159 10.26469,5.19402 20.62286,11.11666 30.87449,17.66351 3.02102,1.92927 6.04268,3.85458 9.06592,5.77631 -6.35802,0.0864 -12.72082,0.16567 -19.08732,0.23904 -15.92428,0.18284 -23.58896,0.44233 -39.94296,1.8984 -11.86591,1.09128 -19.93655,1.8957 -30.80367,2.95185 -3.95592,2.81537 -8.35252,5.96389 -12.09551,8.19196 -5.18425,3.06362 -10.40989,7.22196 -19.06582,10.83556 -10.80276,5.15666 -36.3839,14.26757 -55.73302,16.40419 -2.73271,0.29403 -2.99449,0.18551 -5.66892,-2.4018 -4.62447,-4.72676 -7.57856,-9.59987 -11.75533,-14.67485 -2.61067,0.43342 -4.53018,0.78877 -7.31446,1.28561 0.6327,0.56685 -5.44244,14.43415 -11.25489,27.92686 -5.81578,13.50044 -11.39486,26.71093 -10.01363,26.27305 17.21736,-9.24039 35.50889,-17.30595 54.58487,-24.34527 33.42175,-12.27957 70.14744,-21.44465 108.89242,-27.71731 32.84052,-4.54967 66.71807,-8.99803 100.05782,-8.96197 -0.002,-0.002 -1.37247,-1.49578 -1.37472,-1.4982 -14.48033,-12.73592 -30.48644,-25.45796 -46.8339,-35.08257 -2.67521,-1.54864 -5.40189,-3.07275 -8.17645,-4.57007 -13.1899,-7.10745 -27.47023,-13.62935 -42.52427,-19.43789 -21.89401,-8.44773 -45.47981,-15.3833 -69.75928,-20.45523 -6.5486,-1.36797 -14.81175,-2.964 -18.0743,-3.48068 0.73475,0.11637 -6.78474,-1.07736 -6.04999,-0.961 0,0 0,-2e-5 0,-2e-5 z M 88.640685,270.71168 c -8.705103,2.82924 -16.572493,15.29935 -21.991294,34.9948 -4.409971,19.14597 -6.070281,38.48571 -3.763592,57.18542 2.294431,18.60028 8.484312,36.16772 19.185582,51.35789 20.998219,-0.009 42.479599,0.22473 62.096729,0.54363 -5.68641,-22.61648 -11.0106,-45.95126 -12.67981,-68.2174 -1.66468,-22.20596 0.36741,-42.87318 8.63339,-59.79596 2.13867,-3.99482 3.94598,-7.37135 4.23163,-7.91787 0.34697,-0.66389 -1.95158,-1.258 -11.57813,-3.09915 -11.04184,-2.02481 -34.07586,-7.83375 -44.134505,-5.05136 z m 605.845975,9.04287 c -7.41165,1.87515 -13.57938,3.5932 -13.5828,3.98946 3.31338,7.5914 6.58293,16.23437 8.69427,23.43099 4.31639,18.62256 5.93912,40.00705 2.83529,57.50035 -1.84176,18.55284 -11.83818,34.05601 -16.63437,50.03357 18.84889,0.97959 38.4086,2.01999 54.28205,1.83276 0.27414,0.0521 2.62253,-3.78041 5.17306,-8.50588 6.38401,-11.82799 10.82092,-23.51281 13.60233,-35.20132 4.93943,-23.21118 4.95826,-46.25806 -2.1441,-67.69028 -1.42928,-4.3104 -3.13408,-8.49521 -5.12832,-12.53004 -3.27081,-6.61755 -8.71379,-14.4241 -11.87185,-17.01009 -6.80665,-4.68463 -27.73241,2.25389 -35.22556,4.15048 z m -628.515867,-3.3233 c -4.77636,0.0739 -9.601636,0.40771 -14.066368,0.67666 -6.235375,8.88084 -11.859899,19.22617 -15.280614,28.00945 -6.367483,16.53129 -9.348399,34.68477 -7.82805,49.56839 1.533817,15.01561 7.059686,30.03859 15.737315,42.09451 5.944816,8.53424 21.786437,9.19956 22.134005,9.77028 -1.450911,-2.32559 -3.598248,-6.57992 -5.663467,-11.17735 -12.405349,-30.7895 -15.200743,-60.51843 -6.269521,-89.96289 1.636125,-10.2743 9.392556,-23.58112 12.734383,-28.89584 -0.619227,-0.0866 -0.998011,-0.0831 -1.497683,-0.0832 z m 676.114547,3.2722 c 8.43463,12.91094 13.67423,26.03953 16.20352,39.53767 1.17614,12.66866 2.2338,24.14009 0.56142,36.99456 -1.71096,12.52972 -4.88407,25.15334 -9.3922,36.79459 -2.28893,6.9357 -5.85512,11.86737 -8.4885,18.28884 23.28283,-10.61208 32.92647,-33.32999 35.61863,-55.03926 2.70596,-21.82136 -1.62571,-42.05235 -3.23532,-47.86212 -3.01047,-12.30618 -12.70148,-27.25898 -15.61141,-29.50287 -2.85286,-1.6832 -13.5585,-1.42086 -15.65614,0.78859 z M 91.787697,278.10423 c 4.398204,0.57629 27.146573,3.53884 31.544783,4.11515 0,0 -5.83438,11.47139 -6.50358,13.48735 4.32091,0.38707 -36.505746,-3.2923 -32.184821,-2.90523 -0.403402,-0.31731 6.023224,-13.9653 6.907535,-14.69171 0.01643,-0.0134 0.0969,-0.0151 0.236083,-0.006 0,0 0,3e-5 0,3e-5 z m 631.456283,6.69411 c 0.11528,-0.008 0.18364,-0.005 0.19939,0.0103 1.21974,1.07996 7.23521,12.2632 6.76624,12.5891 -0.32984,0.22921 -6.91884,1.60646 -14.69161,3.0184 -5.04124,0.60456 -9.95122,2.16767 -14.98447,2.60736 -1.04911,0.0384 -6.76145,-12.02092 -5.97907,-12.57581 0.45573,-0.32316 12.51636,-2.74769 20.8211,-4.30729 3.92366,-0.73279 7.06231,-1.28874 7.86853,-1.34146 0,0 -1.1e-4,-1.3e-4 -1.1e-4,-1.3e-4 z m -608.74479,22.5133 c -1.27154,4.45239 -0.58736,9.04548 -1.5416,14.61114 -12.35962,-0.41305 -24.889908,-0.84091 -37.435836,-1.28731 1.568947,-4.88803 1.850923,-10.55321 4.36724,-15.1598 11.193866,0.68788 34.610196,1.83597 34.610196,1.83597 z m 618.59329,0.66587 c 0.0833,0.004 0.13331,0.0121 0.14701,0.0261 1.17203,2.8495 5.44425,15.48076 4.49078,16.08403 -6.78484,1.28895 -27.5668,1.55135 -31.6321,1.06704 -1.22052,-2.98436 -3.00659,-12.90121 -2.39644,-13.31948 0.31797,-0.21816 5.64146,-1.00704 11.64702,-1.81112 7.70737,-1.02363 16.50026,-2.10027 17.74373,-2.04654 0,0 0,1e-5 0,1e-5 z m -620.68204,25.2712 c -0.0484,5.52921 -0.0638,10.90145 -0.0428,16.04124 -4.284,-0.0838 -8.57384,-0.16376 -12.842332,-0.23747 -8.55415,-0.148 -19.663695,-0.65 -27.276935,-0.7469 -0.266569,-6.83631 0.408754,-13.33199 -0.253809,-16.13361 14.024242,0.73282 28.449266,0.79418 40.415866,1.07674 z m 311.72962,-3.59268 c -1.68313,0.0103 -3.39848,0.0316 -5.14827,0.0652 -0.43221,0.008 -0.86199,0.0173 -1.28901,0.0268 -1.83691,0.0407 -3.62565,0.0924 -5.37606,0.15568 -14.29069,0.51781 -26.05835,1.82154 -40.76235,4.44861 -9.71062,1.73494 -24.87768,5.17888 -25.97645,5.91194 -0.60827,0.40579 0.32782,5.29671 1.59624,8.32343 0.36992,0.88288 -0.75386,0.96479 -16.2182,0.82843 -9.94029,-0.0876 -19.03078,-0.0103 -27.29998,0.24371 -35.93836,1.11044 -56.24401,5.53138 -62.09053,13.94505 -4.96806,7.14951 -6.51399,19.36906 -3.40671,27.06461 2.04882,5.07419 6.34134,10.86062 10.96441,14.79766 13.33924,11.35983 34.46556,17.47719 56.07201,17.41064 15.60717,-0.0446 31.45563,-3.2893 45.14073,-9.88626 7.3052,-3.5215 18.16579,-11.62836 23.82511,-17.72667 4.51807,-4.86855 10.91847,-13.45471 9.59301,-12.86914 -0.36502,0.16127 -4.43653,2.30879 -9.04308,4.77362 -16.29631,8.71969 -35.20699,16.03662 -46.9337,18.07812 -7.07901,1.23238 -15.27076,1.20775 -23.12343,0.20103 -11.15414,-1.42829 -21.6271,-4.84337 -27.02755,-9.3822 -6.74048,-6.63661 -6.62632,-13.14606 -2.32465,-19.41251 3.87142,-5.59241 6.78082,-7.58223 13.79002,-9.52424 4.80418,-1.33108 9.72518,-2.23069 14.70413,-2.70172 12.91122,-1.218 26.26059,0.44192 39.07298,4.95724 13.42848,4.95287 32.14072,12.24913 32.14072,12.24913 4.74634,-1.76825 14.03298,-4.00275 14.03298,-4.00275 -1.74195,5.10314 -4.28491,12.96453 -7.63306,16.48507 9.41433,12.9507 18.44029,28.28817 25.09119,40.2004 1.94045,0.58885 3.87644,1.04978 5.79102,1.37866 4.534,0.7793 8.94139,0.81616 12.99619,0.0625 1.52325,-0.28302 2.9959,-0.67751 4.40588,-1.18566 6.02787,-14.1858 14.7186,-25.6472 21.74823,-34.97351 -0.0103,0.0137 2.19636,-2.89512 2.18601,-2.88146 0.28592,-0.64385 -7.46737,-15.5296 -6.35959,-19.89507 6.25353,0.97959 11.98481,5.7794 16.20975,10.35271 9.00356,-7.45681 22.68931,-13.15773 33.50604,-16.03679 9.51129,-2.44719 21.98229,-3.40869 32.3942,-2.82895 5.5171,0.30979 10.47647,1.05214 14.13184,2.24209 10.32466,3.36106 15.31585,16.97964 9.38169,25.86533 -2.33102,3.49047 -7.93308,7.68913 -12.80788,9.5878 -13.04068,4.09463 -28.49216,5.14773 -41.3724,3.00224 -16.95827,-2.99247 -29.78303,-9.98647 -42.01211,-22.67729 -5.48152,-5.68833 -5.903,-5.9886 -5.40146,-3.95365 0.88328,3.58363 4.18577,10.15962 7.85942,15.66106 9.57634,14.3413 26.12332,26.20266 41.70745,29.57723 7.35923,1.59358 18.09438,1.58278 28.9323,0.3204 9.74308,-1.13206 19.57019,-3.28123 26.99827,-6.15216 15.30715,-5.91618 24.14283,-14.18429 28.33734,-26.42707 2.57323,-8.99131 2.76769,-26.42239 -2.61006,-33.16639 -4.91754,-5.93935 -17.73294,-9.93285 -37.38105,-11.79813 -19.79711,-1.1167 -36.05491,-0.43563 -55.70041,-0.22828 4.64166,-8.03777 1.96333,-10.11392 -3.28935,-11.88028 -18.4681,-6.17332 -36.23176,-8.6983 -60.8787,-8.63105 0,0 0,0 0,0 -0.3794,9.4e-4 -0.76043,0.004 -1.14312,0.006 0,0 0,-8e-5 0,-8e-5 z m 315.20633,5.64513 c -0.64954,4.49838 1.65663,11.53973 -0.43804,15.416 -11.00799,0.88434 -20.20593,1.13457 -31.53063,1.62167 -0.37014,-5.57658 0.4886,-12.34703 0.85611,-16.2881 11.38473,-0.25669 12.71049,-0.3271 14.17276,-0.38113 1.79724,-0.0664 3.30917,-0.1 16.93968,-0.36844 z m -313.58358,8.23211 c 8.08854,0.0138 15.73359,0.20818 18.73615,0.59896 9.43827,1.22839 13.17236,1.82772 13.15917,2.15358 -0.007,0.17741 -1.99356,0.93943 -4.41336,1.69275 -7.76676,2.41791 -19.53429,9.48455 -27.96914,16.67585 -1.0932,0.93203 -2.12988,1.86568 -3.09398,2.79098 -1.8176,1.74444 -3.39808,3.17333 -3.51542,3.17351 -1.84358,-1.58921 -3.89458,-3.66241 -5.43729,-5.19459 -0.29458,-0.29282 -0.59785,-0.58744 -0.90903,-0.88335 -6.51572,-6.19347 -16.4768,-12.92644 -22.5614,-15.20277 -2.62491,-0.982 -5.33735,-1.78912 -6.02491,-1.79108 -0.68792,-0.002 -1.25136,-0.20781 -1.25199,-0.45726 -0.002,-0.46389 8.69232,-1.72137 19.7912,-2.89592 2.20124,-0.23297 5.82075,-0.40272 10.05091,-0.51202 0,0 0,0 0,0 1.70611,-0.0439 3.51096,-0.0782 5.36251,-0.10283 2.48038,-0.0327 5.05306,-0.0483 7.59329,-0.0465 -4e-5,0 0.48332,5.9e-4 0.48329,5.9e-4 z m -350.788208,16.8616 c 13.836893,0.25072 26.119058,0.50985 38.685428,0.81861 0.42314,5.59857 2.86184,11.1623 3.23021,16.41173 2.00714,0.0132 -40.081549,-0.24297 -38.07439,-0.2298 -2.833537,-5.59725 -3.365144,-11.36883 -3.841248,-17.00052 0,0 0,-2e-5 0,-2e-5 z m 663.745198,0.78446 c -0.70545,5.91893 -4.30611,10.48292 -6.42442,15.58763 -10.98184,-0.37891 -22.00568,-0.12374 -27.67887,-1.02987 0,0 -0.4635,-4.77386 1.94071,-15.02228 10.89145,0.83458 32.16258,0.46452 32.16258,0.46452 z m -10.10884,26.68664 c -1.0474,2.14498 -5.98341,12.65215 -7.0308,14.79714 -7.90894,0.62928 -20.20125,0.20333 -27.49467,-1.44037 -0.40437,-0.28494 4.70797,-13.07764 5.53361,-13.86467 9.38386,-0.11634 19.3295,0.2947 28.99186,0.5079 z m -609.61879,0.19681 c 1.11473,5.17092 6.72473,12.06167 7.93659,16.95666 -12.72159,-0.17589 -26.43649,-1.42857 -38.19701,-1.47087 -7.46352,-13.64385 -7.360436,-16.73581 -7.360436,-16.73581 -3.245944,0.59672 2.436755,0.78487 10.789609,0.88789 8.401167,0.10363 19.296697,0.12045 26.831247,0.36213 z m 552.95638,1.92043 c -23.58872,14.39969 -43.07264,22.37763 -65.05385,28.89859 1.2248,24.41255 1.35933,39.23689 0.0159,64.86473 9.86314,-8.53517 18.16591,-16.55716 24.57117,-26.74557 4.87787,-7.78017 9.67249,-17.15273 9.67836,-19.68348 5.64631,-8.79169 15.7008,-17.3953 23.38056,-25.58432 7.60238,-8.1065 12.55927,-15.53154 7.40766,-21.74995 z m -526.98423,2.69738 c -0.83008,7.97531 4.00907,16.63791 10.07362,24.09895 6.04153,7.43273 13.39915,13.77738 17.67865,16.75462 4.98142,3.39325 13.67083,8.28743 16.17762,9.09053 2.7818,8.04295 6.31332,17.44 10.74666,24.27889 5.60896,6.50786 10.76251,14.80478 18.62271,16.8866 -0.22509,-20.70579 -1.84503,-41.67024 -2.7808,-60.74717 -6.72689,-1.68608 -13.44357,-4.10433 -18.75891,-6.1748 -19.06806,-6.84494 -34.14468,-16.17853 -51.54286,-24.14254 -0.0816,-0.036 -0.15371,-0.0515 -0.21668,-0.0451 z m 451.42549,30.78324 c -27.06173,10.08366 -53.12565,17.69808 -78.33865,21.36467 0.21614,17.73075 0.25737,20.57858 0.47351,38.30935 0.15362,12.87136 0.3063,26.79997 0.40797,40.54075 28.95513,-6.45366 52.40745,-13.72251 77.78676,-24.47008 0.31401,-16.2025 0.80731,-27.6723 0.84614,-38.91059 0.0394,-11.38516 -0.31588,-22.04641 -1.17573,-36.8341 z m -364.61553,4.67619 c 0.39847,7.5196 1.00603,21.4047 1.56121,36.70842 0.5555,15.31218 0.9766,32.14489 1.59069,44.86917 26.80504,6.46077 54.04476,16.98064 78.03672,20.45048 0.56489,-29.15947 0.27791,-57.22544 -1.49522,-82.48004 -25.32695,-6.2727 -53.79829,-11.45204 -79.4639,-19.50543 -0.0815,-0.0265 -0.15797,-0.0433 -0.2295,-0.0426 0,0 0,-3e-5 0,-3e-5 z m 273.20412,18.18614 c -22.00537,3.58117 -56.10225,7.69241 -79.07211,8.07113 1.26421,55.86692 -0.35647,-15.63083 0.90775,40.23609 0.29433,13.68371 0.57858,28.24339 0.7818,42.99369 8.86054,-0.20423 22.61055,-0.90681 37.37517,-2.7135 14.68831,-1.79734 29.79941,-4.6263 41.01939,-8.73153 -0.12068,-13.95199 -0.29698,-28.05312 -0.47289,-41.09633 -0.13941,-10.33878 -0.39969,-28.42077 -0.53911,-38.75955 z m -180.93602,2.67175 c -0.0493,7.11505 0.76667,27.25351 1.28259,46.41981 0.51438,19.10887 0.70289,37.3534 0.70289,37.3534 -8.29572,-1.01369 12.62909,1.36494 15.29625,1.69865 13.87518,1.73603 37.32611,3.81106 48.91808,4.33348 7.28281,0.3163 15.25999,-0.22684 21.9292,-0.28038 -4.1e-4,10e-6 0.18634,-9.5e-4 0.18594,-9.5e-4 -0.0499,-3.46148 -0.10455,-6.90946 -0.16308,-10.3345 -0.19379,-11.3457 -0.42966,-22.46212 -0.67313,-33.09003 -0.15541,-6.82669 -0.82403,-33.76778 -0.97944,-40.59446 -28.92028,-0.37771 -60.48518,0.0447 -86.4993,-5.50468 0,0 0,7e-5 0,7e-5 z"
         id="path911"
         inkscape:connector-curvature="0" /><path
         style="fill:#ffffff;stroke:#000000;stroke-width:1px;stroke-linecap:butt;stroke-linejoin:miter;stroke-opacity:1"
         d="m 434.16211,311.96618 5.73242,-0.29687 v 0"
         id="path834"
         inkscape:connector-curvature="0" /><path
         style="fill:#ffffff;stroke:#000000;stroke-width:1px;stroke-linecap:butt;stroke-linejoin:miter;stroke-opacity:1"
         d="m 485.89844,221.02868 5.35742,-4.08203"
         id="path836"
         inkscape:connector-curvature="0" /></g><path
       style="fill:none;stroke:#ffffff;stroke-width:2.665;stroke-linecap:butt;stroke-linejoin:miter;stroke-dasharray:none;stroke-opacity:1"
       d="M 14.092109,49.735425 H 95.666127"
       id="path2" /><text
       xml:space="preserve"
       style="font-style:normal;font-variant:normal;font-weight:normal;font-stretch:normal;font-size:18.2582px;line-height:0;font-family:Lintsec;-inkscape-font-specification:Lintsec;letter-spacing:0px;word-spacing:0px;fill:#ffffff;stroke-width:2.41539"
       x="15.836915"
       y="40.370007"
       id="text2"><tspan
         sodipodi:role="line"
         id="tspan2"
         style="font-style:normal;font-variant:normal;font-weight:normal;font-stretch:normal;font-family:Lintsec;-inkscape-font-specification:Lintsec;fill:#ffffff;stroke-width:2.41539"
         x="15.836915"
         y="40.370007">PAPA</tspan></text><text
       xml:space="preserve"
       style="font-style:normal;font-variant:normal;font-weight:normal;font-stretch:normal;font-size:17.8616px;line-height:0;font-family:Lintsec;-inkscape-font-specification:Lintsec;letter-spacing:0px;word-spacing:0px;fill:#ffffff;stroke-width:2.36294"
       x="11.334724"
       y="72.725792"
       id="text3"><tspan
         sodipodi:role="line"
         id="tspan3"
         style="font-style:normal;font-variant:normal;font-weight:normal;font-stretch:normal;font-family:Lintsec;-inkscape-font-specification:Lintsec;fill:#ffffff;stroke-width:2.36294"
         x="11.334724"
         y="72.725792">GUMBO</tspan></text></g></svg>
